<svg viewBox="0 0 32 32" fill="none" xmlns="http://www.w3.org/2000/svg">
<path d="M19.3895 5.79596C15.5896 7.40896 16.2996 10.0151 13.0087 13.1741C11.1582 14.9505 7.96169 14.5349 6.21036 16.8785C2.16386 22.2934 9.12889 28.2944 14.3788 28.1368C23.6305 27.8589 28.1458 17.2988 26.6975 9.32859M23.5752 14.2575C23.7731 15.171 22.7863 17.0781 22.2187 17.7332M12.0136 25.4609C15.465 24.713 18.3051 22.7928 20.5837 20.1626M24.3228 3.02377C24.052 3.09834 23.0999 5.1368 23.0651 5.14247C22.6777 5.20638 22.1764 5.02845 21.7405 5.10029C20.7965 5.2561 19.9399 5.61509 19.0406 5.93659C18.7698 6.03339 17.8798 6.44337 17.8461 6.77075C17.7952 7.26382 21.0227 7.63719 21.5124 8.10619C22.2296 8.79314 21.4529 10.0768 22.0129 10.7023C22.5624 11.316 23.6095 9.10271 24.6992 9.69453C25.2805 10.0104 25.4871 12.5716 26.2547 12.0153C26.5609 11.7935 26.5703 11.2142 26.6042 10.8862C26.7934 9.05269 26.6392 7.90144 25.7876 6.28619C25.7834 6.27807 26.344 6.08271 26.8005 4.52638C27.0448 3.69359 24.9677 2.84633 24.3228 3.02377Z" stroke="currentColor" stroke-width="1.5" stroke-miterlimit="10" stroke-linecap="round"/>
</svg>
