<svg viewBox="0 0 24 24" fill="currentColor" xmlns="http://www.w3.org/2000/svg">
<path d="M22 9.67002C21.9369 9.48711 21.822 9.32645 21.6693 9.20753C21.5167 9.0886 21.3328 9.01652 21.14 9.00002L15.45 8.17002L12.9 3.00002C12.8181 2.83095 12.6903 2.68837 12.5311 2.5886C12.3719 2.48883 12.1879 2.43591 12 2.43591C11.8122 2.43591 11.6281 2.48883 11.4689 2.5886C11.3097 2.68837 11.1819 2.83095 11.1 3.00002L8.55001 8.16002L2.86001 9.00002C2.67493 9.02633 2.50093 9.10399 2.35776 9.22418C2.21458 9.34438 2.10797 9.5023 2.05001 9.68002C1.99695 9.8537 1.99219 10.0385 2.03624 10.2147C2.08028 10.3909 2.17147 10.5517 2.30001 10.68L6.43001 14.68L5.43001 20.36C5.39431 20.5475 5.413 20.7413 5.48388 20.9185C5.55476 21.0957 5.67486 21.2489 5.83001 21.36C5.98123 21.4681 6.15958 21.5319 6.34506 21.5443C6.53053 21.5567 6.71578 21.5171 6.88001 21.43L12 18.76L17.1 21.44C17.2404 21.5192 17.3989 21.5605 17.56 21.56C17.7718 21.5608 17.9784 21.4942 18.15 21.37C18.3052 21.2589 18.4253 21.1057 18.4961 20.9285C18.567 20.7513 18.5857 20.5575 18.55 20.37L17.55 14.69L21.68 10.69C21.8244 10.5677 21.9311 10.4069 21.9877 10.2264C22.0444 10.0458 22.0486 9.8529 22 9.67002Z"/>
</svg>
