<svg xmlns="http://www.w3.org/2000/svg" fill="none" viewBox="0 0 24 24" fill="currentColor"><path fill-rule="evenodd" d="M16.4431 3.22561c.1266-.53722-.2072-1.07374-.7456-1.19834-.5384-.12461-1.0775.20988-1.2041.7471l-.7208 3.0584-.4366-.41198c-1.4227-1.3424-3.71612-.98176-4.67019.70987L2.31884 17.3842c-1.521725 2.6981 1.54637 5.652 4.18485 4.029l11.06211-6.8044c1.6797-1.0332 1.9247-3.3807.4875-4.73683l-.4901-.46243 3.0784-1.51299c.4952-.24343.6977-.84215.4521-1.3373-.2456-.49514-.8462-.69919-1.3415-.45576L17.5335 7.194l2.0351-2.5799c.3417-.43317.2648-1.05924-.1718-1.39837-.4366-.33914-1.0676-.26291-1.4093.17026L15.7312 6.2462l.7119-3.02059Zm.2376 8.10099-4.7173-4.45116c-.4725-.44588-1.2364-.32817-1.5556.23772l-1.24994 2.2163 2.54924 2.54924c.3905.3905.3905 1.0237 0 1.4142-.3905.3905-1.0237.3905-1.4142 0l-2.15501-2.155-4.07701 7.2288c-.50725.8994.51546 1.884 1.39495 1.343l2.01463-1.2392-.76335-.7634c-.39053-.3905-.39053-1.0237 0-1.4142.39052-.3905 1.02369-.3905 1.41421 0l1.10036 1.1004 7.29622-4.4881c.5604-.3447.6414-1.127.1628-1.5786Z" clip-rule="evenodd"/></svg>