<svg aria-hidden="true" xmlns="http://www.w3.org/2000/svg" overflow="hidden">
  <defs>
    <symbol id="eggplant" viewBox="0 0 32 32">
      <path d="M19.703 5.857c-3.883 1.648-3.157 4.31-6.52 7.538-1.89 1.815-5.157 1.39-6.946 3.785-4.135 5.533 2.982 11.665 8.346 11.504C24.036 28.4 28.649 17.61 27.169 9.466m-3.19 5.036c.203.934-.806 2.882-1.386 3.552M12.166 25.95c3.527-.765 6.428-2.727 8.757-5.414m3.82-17.512c-.276.076-1.25 2.16-1.285 2.165-.396.065-.908-.116-1.353-.043-.965.16-1.84.526-2.759.854-.277.1-1.186.518-1.22.853-.053.504 3.245.885 3.746 1.364.733.702-.061 2.014.511 2.653.561.627 1.631-1.635 2.745-1.03.594.323.805 2.94 1.59 2.371.312-.226.322-.818.356-1.153.193-1.874.036-3.05-.834-4.7-.005-.009.568-.208 1.035-1.798.25-.851-1.873-1.717-2.532-1.536Z" stroke="currentcolor" stroke-width="1.5" stroke-miterlimit="10" stroke-linecap="round"/>
    </symbol>
    <symbol id="radish" viewBox="0 0 32 32">
      <path d="M16.072 10.35c.25-.479.203-1.327.398-1.88.616-1.748 2.068-3.323 3.709-4.109 1.533-.734 5.428-.498 4.575 2.111-1.165 3.568-6.553.738-8.145 3.79m-.959-.756c.475-1.586-2.617-5.38-4.188-5.453-1.147-.052-2.506.656-1.96 2.01.339.838 1.352 1.252 2.102 1.582 1.06.468 2.7 1.535 3.263 2.58m-7.79 7.502c.765.5 3.381.584 4.267.398m13.2-1.274c-.247.186-1.765.327-2.107.28m1.775 3.582c-.838.166-1.695.29-2.561.145M9.23 23.044c.858.207 1.94.106 2.822.03m3.475-12.383c-1.128.074-3.435.67-3.435.67s-1.978.803-3.017 1.615c-2.481 1.94-2.452 5.205-1.399 7.844 1.41 3.533 5.444 4.7 7.85 7.312.148.16.29.325.423.496l.01.012c.588-.588 1.885-1.473 2.58-2.03 1.605-1.283 3.266-1.776 4.61-3.455 2.379-2.974 2.659-7.686-.69-10.197-1.728-1.296-2.066-1.484-4.835-2.043l-2.097-.224Z" stroke="currentcolor" stroke-width="1.5" stroke-miterlimit="10" stroke-linecap="round" stroke-linejoin="round"/>
    </symbol>
    <symbol id="salad" viewBox="0 0 32 32">
      <path d="M8.94 27.624c-.659-.195-1.794-1.505-1.677-2.006.312-1.344 1.446-2.257 1.654-3.644.214-1.427-.418-2.931-.059-4.327.561-2.181 2.85.008 3.734-1.542.763-1.34.485-2.945 1.387-4.289.82-1.221 2.12.118 3.134-.301.593-.245 1.004-1.452 1.319-1.955 1.119-1.79 4.068-5.303 6.446-3.538 2.086 1.549 1.565 4.137 1.244 6.282-.098.654-.598 1.218-.647 1.896-.106 1.464 1.422 2.271 1.015 3.852-.735 2.86-2.543 3.339-4.395 5.233-.737.755-.193 1.97-.8 2.874-1.437 2.142-4.97 1.97-7.245 1.94-1.345-.018-4.554-.086-5.306-.566m-.83-1.289c2.031-.58 3.664-1.906 5.359-3.093 2.578-1.804 4.856-4.199 6.887-6.6 1.205-1.423 2.102-2.833 2.734-4.603.172-.481.45-1.061.45-1.583m-5.921 4.182c0 1.355.39 2.723.39 4.07m.117.305c.654.107 2.804.027 3.417-.252m-8.063 4.986c1.061.14 2.129.05 3.199.057m-3.575-4.043c-.302 1.058-.198 2.423-.198 3.526m-5.352 2.566c-.021-3.412-1.08-6.853-1.735-10.197-.247-1.258-1.035-3.21-.35-4.461.916-1.672 2.403.412 3.116-.89.916-1.673 1.836-3.496 2.987-5.033.376-.503 1.187-1.294 1.887-1.167.977.177.871 1.84 1.334 2.093.44.241 1.244-.395 1.674-.446.987-.119 2.044.579 2.44 1.451.157.346.41.875.51 1.22m-5.508.672c.09.723.132 1.75.343 2.414m-3.09 2.275c.404.76.289 1.773.543 2.57" stroke="currentcolor" stroke-width="1.5" stroke-miterlimit="10" stroke-linecap="round"/>
    </symbol>
    <symbol id="pepper" viewBox="0 0 32 32">
      <path d="M10.097 14.49c.167-1.604 1.208-4.927 3.438-4.234.948.295 1.988 1.675 2.959 1.584 1.496-.14 1.984-1.93 4.227-1.409 2.889.671 3.872 7.527 3.334 10.23-1.47 7.37-3.632 8.547-5.07 8.27-1.291-.249-2.675-.41-3.987-.288-.917.086-6.137 1.536-5.22-4.808m11.583 4.323c6.33-.169 7.345-12.147 5.045-15.987-1.327-2.215-2.707-2.514-4.767-1.643m-6.42.095c.881-1.384-2.41-5.358-2.089-5.97.39-.742 2.169-1.864 2.846-1.619.563.204 2.25 5.605 2.016 7.854m-6.787-.3c-2.988-1.905-4.2-.693-5.557 2.544-.825 1.967-1.24 10.072 1.136 13.572.774 1.14 2.08 1.236 3.364 1.37m-.337-9.956c-.048.38-.053 1.353-.053 1.353m11.253-.773c1.028-4.472-1.83-5.062-1.83-5.062" stroke="currentcolor" stroke-width="1.5" stroke-miterlimit="10" stroke-linecap="round" stroke-linejoin="round"/>
    </symbol>
    <symbol id="pea" viewBox="0 0 32 32">
      <path d="M7.39 8.518c-1.326-1.5-1.027-2.073-3.217-3.015-.85-.365 1.656-1.838 2.671-1.433 1.016.404 1.518 3.446 2.048 4.506m-1.059.401S8.86 11.76 9.04 12.48c.14.559.566 1.08.773 1.598.375.937.62 1.927 1.135 2.785 1.711 2.852 5.453 5.047 8.354 6.498 1 .5 2.636.876 3.765.876.354 0 5.798-.913 5.798-.913s-3.744 2.661-7.048 2.912c-4.58.348-6.213-.09-9.348-1.892M8.32 9.652c.873-.633 2.627-.88 3.583-.035 1.185 1.047 1.964 3.458-1.056 4.828m1.971-1.314c3.282 0 3.588 4.599-.556 5.205m3.133-2.173c.35 0 1.85-.26 2.73 1.97.656 1.668-1.284 3.194-1.669 3.386m2.085-2.773c.502 0 1.536.181 2.034.555 1.42 1.064.71 3.588-.808 4.094m1.687-2.32c.184-1.046 3.051-.123 3.087 2.934M9.042 8.354c2.612-.563 3.72-.25 4.067-.1.675.291 1.802 1.444 2.334 3.095.376 1.168 1.355 1.713 1.797 2.155.674.674 1.095 2.417 1.862 2.914 1.348.875 2.026 1.368 2.997 1.463 2.577.253 5.294 4.483 6.636 5.154M8.798 20.548c-2.106-2.865-2.897-6.702-2.027-10.184.23-.922.711-1.029.992-1.871m-.092 15.16s-.309.38-.014.969m1.753-3.646c-3.292-.771-5.404 4.103-2.167 6.045 2.394 1.436 5.387-.95 4.861-3.58-.196-.984-1.328-2.144-2.694-2.465Z" stroke="currentcolor" stroke-width="1.5" stroke-miterlimit="10" stroke-linecap="round" stroke-linejoin="round"/>
    </symbol>
    <symbol id="tomato" viewBox="0 0 32 32">
      <path d="M15.501 7.027c-.805-.394-2.072-.079-2.827.026-1.921.267-3.635 1.49-5.034 2.747-1.348 1.211-2.395 2.668-3.057 4.356-2.268 5.783 2.437 11.31 7.97 13.093 6.896 2.222 13.385-.114 15.587-7.394.483-1.597.352-3.186-.092-4.775-.623-2.23-1.386-3.53-3.988-4.996m-6.577-2.445c.795-1.747.933-2.967 2.363-4.366.624-.61 2.864-.106 2.695.618-.173.74-.617.677-1.563 1.677-.858.908-1.059 1.43-1.706 2.483 0 0 .86-1.588.939-1.432.047.092 1.148.403 1.696.474 1.236.162 3.139 1.775 2.818 3.149-.05.216-.296.02-.406-.023-.588-.229-3.627-1.21-4.069-.49-.135.218.143 1.003.134 1.289-.025.763-.258 3.355-1.125 3.68-.526.197-.656-.866-.824-1.136-.717-1.154-1.186-2.55-2.601-3.05-1.323-.468-2.862 1.187-4.063.72-.452-.176.373-1.647.469-1.817.975-1.736 2.382-1.809 3.421-2.506.737-.495-.415-.791-.789-1.394-.073-.117-1.383-.967-1.017-1.001 1.041-.097 3.53.073 4.289 1.242M9.941 12.36c-1.689 1.457-1.834 5.312-1.433 6.308m1.611 3.518c.916 1.532 1.776 1.67 1.776 1.67" stroke="currentcolor" stroke-width="1.5" stroke-miterlimit="10" stroke-linecap="round" stroke-linejoin="round"/>
    </symbol>
    <symbol id="cucumber" viewBox="0 0 32 32">
      <path d="M23.489 17.7c1.999-1.506 3.27-4.983 3.08-7.399-.163-2.066-2.57-3.393-4.505-2.744-3.611 1.211-5.632 5.15-8.163 7.69-1.192 1.196-2.942 1.56-4.432 2.06-1.45.486-3.105 1.14-4.32 2.053-1.516 1.142-2.723 3.245-1.861 5.214.505 1.152 1.526 2.27 4.13 2.578 3.358.396 6.268-.11 9.053-2.208m-9.644-3.85s1.226-.221 2.26-.67c1.103-.477 2.172-.83 3.672-1.846m5.74-4.437c1.858-1.398 2.792-2.528 3.94-4.34m2.155-2.59s.899-1.96 1.629-2.204c.327-.11 1.893 1.181 1.81 1.484-.158.587-1.667 1.445-1.962 2.036m-1.62 4.426c-.338.682-1.257 1.764-1.86 2.218M7.269 24.123c1.976-.003 3.18-.181 5.059-.81m5.797-3.49.805.594m2.643-1.033-.438.625m-2.467 3.319.66-.825m2.207-.287.713.55m.998-4.807c-2.147-1.834-4.851-1.497-6.427-.081-1.97 1.768-2.317 5.524.263 7.303 1.334.92 3.58 1.116 5.119.316 3.394-1.765 3.277-5.632 1.045-7.538Z" stroke="currentcolor" stroke-width="1.5" stroke-miterlimit="10" stroke-linecap="round" stroke-linejoin="round"/>
    </symbol>
    <symbol id="zucchini" viewBox="0 0 32 32">
      <path d="M23.395 7.062c.16-.482.86-2.993 1.195-3.031 1.858-.21 2.202.715 2.436.949.443.443-1.451 2.996-1.708 3.51m-16.1 11.546c2.405-.89 2.749-1.059 4.365-2.246m3.732-3.637c.665-.49 2.047-1.95 2.436-2.53M7.427 24.532c2.984-.224 5.458-1.505 7.61-3.327 3.685-3.117 6.489-5.895 8.067-10.627M23.06 7.42c-.553-.087-.855-.067-1.127-.037-.79.087-1.61.611-2.277 1.012-2.198 1.318-7.683 6.007-8.572 6.674-2.16 1.62-4.454 2.761-6.042 5.03-2.258 3.225-.703 7.198 3.29 7.812 2.924.45 5.954-.622 8.319-2.277 4.167-2.917 7.766-7.215 9.015-12.21.429-1.717.352-4.648-1.472-5.56-.256-.128-.58-.357-1.134-.444Z" stroke="currentcolor" stroke-width="1.5" stroke-miterlimit="10" stroke-linecap="round" stroke-linejoin="round"/>
    </symbol>
    <symbol id="mushroom" viewBox="0 0 32 32">
      <path d="M11.356 15.872c-1.69-7.75 5.767-11.004 10.889-9.524 3.208.927 5.07 3.067 5.952 5.73.885 2.67.895 5.48-2.97 8.823M11.471 15.98c3.689-.475 11.023 2.433 13.586 5.07m-10.995-4.691c.05.392-.758 2.016-.517 2.334.114.15 3.927 1.046 4.612 1.248 1.837.542 2.053.704 3.091 1.272.195.107.883.656 1.134.535.296-.143.544-1.887.649-2.188m-8.448.056c-2.273 2.943.586 6.455 3.85 6.38 1.161-.027 1.965.005 2.66-1.172.587-.995.703-1.985.718-3.032m-8.91-13.234c-.495-.292-.483-.397-1.09-.501-4.253-.733-7.855 2.203-8.51 6.372-.212 1.342-.806 4.483.639 5.432.588.386 1.803-.034 2.427-.09 2.236-.204 4.405-.877 6.622-1.162m-6.022 1.32c-.17.082.045 2.136.26 2.155 1.63.15 4.002-.75 5.686-.967m-4.353.95c-.408.198.523 3.276 1.105 3.578 1.574.814 3.996-.553 5.486-.745m-7.13-13.651c-1.048.792-2.11 3.343-2.127 4.605m15.567-6.79c-.655-.23-1.364-.035-2.004.168m-2.486 1.251c-1.023.494-2.2 1.63-2.578 2.712" stroke="currentcolor" stroke-width="1.5" stroke-miterlimit="10" stroke-linecap="round" stroke-linejoin="round"/>
    </symbol>
    <symbol id="onion" viewBox="0 0 32 32">
      <path d="m13.786 27.416-.916 1.523m3.183-1.328-.086 1.749m2.047-1.815.818 1.679M8.188 18.26c-.16-2.117.456-4.77 2.326-6.139m-1.696 9.526c.124.483.792 1.678 1.266 1.832m7.675-13.976c2.551 4.998 2.506 8.969-.806 13.833m5.953-8.956c1.392 2.334-.048 6.293-1.353 8.21M15.617 3.109c-1.358-.704-.929 2.173-2.492 3.398-3.018 2.364-7.78 5.238-8.788 9.183-1.191 4.669.825 8.38 5.252 10.857 1.97 1.103 5.05.725 7.225.804 2.93.108 6.57-.286 8.339-2.597 1.731-2.26 2.453-4.653 2.164-7.417-.305-2.917-2.366-5.715-3.684-7.328-2.403-2.942-5.357-5.521-8.016-6.9Z" stroke="currentcolor" stroke-width="1.5" stroke-miterlimit="10" stroke-linecap="round" stroke-linejoin="round"/>
    </symbol>
    <symbol id="garlic" viewBox="0 0 32 32">
      <path d="M12.483 3.734c-.222.428.412 5.244.617 5.889m-.038.069c-1.303 1.392-1.24 1.295-3.225 3.181-1.954 1.858-2.893 2.174-4.402 6.092-.711 1.85-.47 3.641.145 4.917.949 1.971 2.192 2.99 4.39 3.206.605.06 1.955-.038 2.557.106 1.71.407 2.709.59 4.484.48 1.082-.066 1.877-.642 2.838-.947.517-.163 1.353.323 1.98.219 1.813-.302 3.877-1.755 4.507-3.554 1.455-4.155-1.312-8.453-4.348-10.888-1.396-1.12-3.824-1.962-4.898-3.44-.954-1.313-1.213-4.646-2.558-5.947-.351-.34-1.296.132-1.983.511m2.485 9.557c.14.5.134.807.202 1.477m.086 3.277s-.067 1.038-.109 1.377c-.083.68-.186 1.38-.35 1.998-.45 1.69-1.006 4.691-2.522 5.794m6.356-13.572c.678.933 1.219 2.252 1.484 3.432m.761 2.819c.55 1.342.11 5.466-.483 6.61m-6.243 1.764c-.007.445-.361 1.084-.567 1.482m2.905-1.399c-.008.492.372 1.412.372 1.412m1.025-2.003c.244.126.54.354.809.584.418.358.774.721.774.721" stroke="currentcolor" stroke-width="1.5" stroke-miterlimit="10" stroke-linecap="round" stroke-linejoin="round"/>
    </symbol>
    <symbol id="carrot" viewBox="0 0 32 32">
      <path d="M20.577 9.763c-.27-.97 1.393-4.45 2.5-4.66 1.176-.224.053 1.77.946 2.333.617.389 3.349-3.004 3.937-2.353.853.944-2.057 3.965-.953 3.753 2.015-.389 2.924.405 2.778 1.152m-.058 0c-.632.82-2 1.048-2.587 1.81-.151.197 1.717.673 1.268 1.256-.442.573-1.106.815-2.14 1.167-1.032.351-1.858.116-1.961.25m-1.257-2.839 1.082-.845m-10.144 2.894 1.069 1.205m.41 5.194 1.283 1.96m2.72-6.963 1.684 2.253m-11 1.861.638.985m-3.035 4.153 1.154 1.383m9.708-16.52c-1.13.285-1.272.365-4.708 3.513-3.37 3.086-5.853 5.73-8.334 9.287-.86 1.232-1.233 1.648-1.915 2.942-.157.299-.98 1.937-.529 2.333.45.396 2.119.088 2.692-.052 1.593-.391 1.976-.662 3.278-1.147 1.556-.578 3.019-1.408 4.555-2.07 2.376-1.026 6.872-3.608 6.872-3.608s3.436-1.972 4.285-3.584c.412-.783-.262-1.84-.622-2.502-.833-1.532-2.004-3.153-3.402-4.255-.66-.52-1.211-1.1-2.172-.857Z" stroke="currentcolor" stroke-width="1.5" stroke-miterlimit="10" stroke-linecap="round" stroke-linejoin="round"/>
    </symbol>
    <symbol id="broccoli" viewBox="0 0 32 32">
      <path d="M7.715 12.59c-1.794-1.332-4.01.56-4.538 2.56-.349 1.324-.168 2.192.412 3.406 1.9 3.978 5.761-.735 7.524.84 2.408 2.152 1.14 5.034 2.21 7.474m.041.224c1.092.81 5.678 1.265 6.723.346 1.027-.903 1.153-2.995 1.372-4.236.184-1.04.261-2.09.443-3.124.017-.094.03-.794.118-.82.625-.186 1.55.163 2.204.117 1.776-.125 3.907-1.375 4.687-3.026.76-1.609-.495-5.29-2.768-4.614m-18.366.883c-.26-.193-.358-.704-.504-.984-1.227-2.35.344-5.578 2.711-6.442 1.64-.599 2.921.524 3.845 1.737.243.32.401.752.477 1.143.007.034.135.69.213.635.091-.064.083-.55.117-.658.207-.671.588-1.3 1.215-1.658.655-.376 1.5-.298 1.947.343.068.097.311.625.43.646.01.002.204-.617.225-.666.15-.334.34-.662.55-.961.535-.763 1.32-1.27 2.203-1.565 3.012-1.004 5.788 2.162 5.76 5.033-.008.92-.702 1.522-.848 2.347m-19.86 3.198c-.384.68-.446 1.66.367 2.503M21.296 7.2c1.687-.21 2.845 1.145 2.487 2.422m2.091 4.543c.092.31.575.909-.05 2.036m-14.23.036c1.791-.308 3.017-1.465 3.6-2.25M11.555 16.3c.157.529 1.12 1.16 1.46 1.598.476.616.895 1.457 1.307 2.046.045.063-.042.04.05.055.027.005.308-1.441.321-1.517.168-.954.373-1.993.494-2.952.106-.84.105-1.21.014-1.463m-.192 8.657c.182.611.374.77.292 1.999m2.647-10.64c.112-.039.273 1.221 1.566 1.457 1.287.236.901.492.95.651.047.163-.299 1.148-.339 1.374-.029.16-.26 1.928-.379 1.85-1.384-.91-2.065-.221-2.217-.439-.347-.495-.093-4.716.42-4.893Z" stroke="currentcolor" stroke-width="1.5" stroke-miterlimit="10" stroke-linecap="round" stroke-linejoin="round"/>
    </symbol>
    <symbol id="potato" viewBox="0 0 32 32">
      <path d="M7.094 24.274c-3.722-.515-3.91-3.189-4.075-4.69-.105-.94.252-2.405.483-3.328.26-1.04.797-2.645 1.078-3.676.862-3.16.095-6.589 3.18-8.724 2.7-1.87 5.766-.357 7.88 1.494.615.537 1.174 1.378 1.634 2.348m4.64 3.74c1.3.407 2.055 1.643 2.055 1.643m-7.357.747c.945.414 1.309.937 1.606 1.382m-7.732 5.005c1.109.334 1.73 1.037 2.226 1.533m3.078-3.177c.342.14 1.034.775 1.218.959m7.806-3.405c-.31.973-.507 1.439-1.148 2.331-.292.406-.5.76-1.83 1.808m-6.273 4.64c.748-.071 1.315-.3 2.02-.74M8.432 8.675c.816-.07 1.215-.046 1.858.114m.294 2.854c.87.05 1.556.52 1.942.835m-6.46 5.022c.753-.007 1.443.13 1.81.385M22.643 5.946c-1.065-.037-2.724.442-2.94.529-1.798.719-2.786 2.077-3.838 3.655-.655.982-1.327 1.85-2.167 2.69-.93.93-2.12 1.583-3.1 2.464-2.643 2.38-5.398 7.039-2.278 10.16.707.706 1.386 1.295 2.24 1.83 1.133.707 2.703.858 3.997.858 5.433 0 11.427-4.904 13.288-10.113 1.198-3.354 1.26-7.43-.292-9.453-.626-.816-2.036-1.695-2.815-2.077-.724-.355-1.031-.506-2.095-.543Z" stroke="currentcolor" stroke-width="1.5" stroke-miterlimit="10" stroke-linecap="round" stroke-linejoin="round"/>
    </symbol>
    <symbol id="sweetpotato" viewBox="0 0 32 32">
      <path d="M5.46 21.57c-1.059-.88 0-5.038.301-6.05 1.453-4.892 3.885-7.85 8.321-10.29.941-.518 3.658-1.574 4.748-1.12.564.236.402 1.163.3 1.601-.28 1.197-.91 2.734-.187 3.898m-3.845.471 1.148.816m-7.45-.445.952.7m3.866 4.938 1.764 1.216m6.77-4.768 1.373 1.333m-2.87 4.674 1.367 1.245m-8.337 2.704 1.428 1.015m-7.122-1.216c-.167-.104.948.713 1.165.894M25.462 6.74c-.506-.37-1.258.194-1.63.487-.423.33-.728.81-1.129 1.162-1.019.895-2.26 1.622-3.507 2.135-1.892.778-3.912 1.036-5.81 1.777-4.24 1.656-6.593 4.793-7.604 9.111-.48 2.05-.476 5.123 1.245 6.645 1.83 1.617 5.141-1.209 7.072-1.742 1.695-.468 3.463-.783 5.104-1.424 2.565-1.002 5.184-3.122 6.618-5.452.741-1.203 1.061-2.695 1.44-4.045.707-2.523.604-6.896-1.799-8.654Z" stroke="currentcolor" stroke-width="1.5" stroke-miterlimit="10" stroke-linecap="round" stroke-linejoin="round"/>
    </symbol>
    <symbol id="corn" viewBox="0 0 32 32">
      <path d="M8.802 10.576c0 4.728-6.565 7.765-4.342 12.95.346.808.729 1.573 1.283 2.266.786.982 1.79 1.618 3.02 1.926 1.345.336 2.784.496 4.079-.151 3.313-1.657 6.045-5.936 9.632-7.132M8.99 10.501c1.085.887 1.287 1.328 1.736 2.114.912 1.595.974 6.138.114 7.86m-4.947 5.053c2.815-5.63 10.945-7.919 16.606-5.089m-11.925-8.466c.514-1.025 4.66-4.128 5.684-4.686 2.413-1.317 7.069-4.365 10.008-2.896 1.566.783 1.03 3.367.544 4.826-.962 2.89-1.718 4.102-2.94 5.88-.965 1.406-3.258 4.33-3.258 4.33m-8.971-3.241c-.026-.167 1.093-1.454 1.242-1.594 1.493-1.41 3.369-3.291 5.24-4.432m-6.063 9.594c1-.815 1.947-1.73 2.947-2.544m3.271-3.062s1.595-1.495 1.846-1.765c1.044-1.127 1.68-1.723 2.753-2.71m-5.145 7.963c-.003-.005.334.317.445.417.337.302.816.816 1.16 1.114m1.56-2.806c.323.208.692.52.93.812m.186-4.09c.99.652 1.515 1.197 1.74 1.64m-.793-4.99c.92.355 1.945 1.414 2.431 2.2m-.488-5.139s.98-.975 1.45-1.63M21.18 4.75c.255.35.36.404.875.986m-4.341.802c.548.248 1.206.969 1.56 1.458m-4.664.64c1.318.553 1.663 1.33 1.966 1.75m-4.433.486c.69.214 1.575 1.358 1.901 1.976" stroke="currentcolor" stroke-width="1.5" stroke-miterlimit="10" stroke-linecap="round" stroke-linejoin="round"/>
    </symbol>
    <symbol id="pumpkin" viewBox="0 0 32 32">
      <path d="M15.064 9.2c.076-.15-.297-2.444-.329-2.76-.022-.218-.14-1.256.082-1.402 1.481-.965 2.493-.123 2.926.165.094.063-.232.715-.247.824-.092.64-1.19 3.003-.37 3.413M22.155 3c-1.933.574-3.173 3.108-.685 4.386 1.648.846 2.995-.9 2.805-1.567-.305-1.069-1.683-1.352-3.186-.263-1.31.95-2.677 1.91-3.059 3.438m-7.487 2.763c-1.715.648-2.692 3.764-2.692 3.764m-.427 3.939c-.006 2.05.27 2.782.842 3.675.645 1.005 1.647 2.067 2.677 2.63m3.305-13.216c-1.372 2.353-1.104 4.821-1.104 4.821m.307 4.481c.113 1.327.356 3 1.071 4.17m4.516 2.893c2.132 0 4.348-4.897 4.348-6.686m-4.969-12.78c2.21.804 5.556 3.021 5.301 7.746m-7.954-7.396s-2.637-2.41-7.293-.021c-3.958 2.031-4.724 5.853-4.409 10.26.254 3.566 3.812 8.213 7.54 8.694 2.555.33 3.49-.18 4.08-.082.55.091 2.084.15 2.637.247 1.648.288 2.845-.21 4.08-.66 4.938-1.795 6.127-7.147 5.314-11.619-.412-2.266-1.454-3.327-2.225-4.533-2.266-3.543-8.117-2.554-8.117-2.554l-1.607.268Z" stroke="currentcolor" stroke-width="1.5" stroke-miterlimit="10" stroke-linecap="round" stroke-linejoin="round"/>
    </symbol>
    <symbol id="snowpea" viewBox="0 0 32 32">
      <path d="M5.684 11.63c.264 2.175 1.886 5.258 2.238 5.962 2.483 4.966 7.26 9.097 12.715 9.341 2.612.117 5.308.83 6.765-.627.837-.838.173-2.614-.567-3.459-.577-.66-1.598-.908-2.256-1.485-.968-.847-1.114-2.333-1.99-3.295-.884-.974-2.228-1.407-3.058-2.376-.66-.77-.962-1.932-1.514-2.79-.424-.66-1.168-1.144-1.782-1.604-.847-.636-3.144-2.289-4.626-2.442m4.181 1.67c-.489-.245 1.566-.209 1.574-.208.92.102 2.07.848 2.79 1.425 1.395 1.116 2.257.106 3.593.297.768.11 1.536.908 2.346 1.129.4.109 1.845.046 2.049.386 1.143 1.905-2.642 3.219-3.778 3.345-.285.031-2.716.159-2.716.159M8.694 14.266c1.005 2.798 2.17 3.864 3.457 4.905m.682-6.91c.663.422 1.08.844 1.274 1.136.456.683.717 1.761.317 2.562m2.493.72c1.256.02 2.08 1.35 1.438 2.593m2.542 1.437c1.135.202 1.633.983 1.633 1.99m-6.118.223c.963.726 2.3 1.274 3.028 1.566M4.121 5.715c.35.455 1.649 2.045 1.544 2.672-.113.676-1.24 3.808-.831 4.216.059.06.535-.602.594-.653.455-.398.953-.412 1.535-.64.918-.358 2.629.183 2.684.155.038-.018.122-1.174.472-1.593.433-.52 2.085-1.325 2.206-1.81.061-.247-1.292-.725-1.447-.783-1.12-.42-1.85.006-3.016-.227-.5-.1-1.005-2.868-1.862-3.04-.712-.142-2.475.927-1.879 1.703Z" stroke="currentcolor" stroke-width="1.5" stroke-miterlimit="10" stroke-linecap="round" stroke-linejoin="round"/>
    </symbol>
    <symbol id="kohlrabi" viewBox="0 0 32 32">
      <path d="M17 10.986c-.256-.127.421-2.245.355-2.506-.06-.241.01-.673-.991-.872-.751-.15-1.115-1.1-.834-1.772.349-.834 1.611-.124 2.49-.3.206-.04.486-1.6.564-1.758.304-.607 1.352-1.222 2.124-.33.961 1.11-.273 2.07-.105 2.908.09.45 1.926.676 1.431 1.982-.56 1.48-1.912.203-2.372.663-.451.451-.262 1.352-.546 1.92M16.15 7.574c-.581.2-.696.724-.766 1.44-.061.635.2 1.312.228 1.947m-1.74.25c-.285.013-.379-1.482-.563-1.678-.17-.182-.319-.593-1.29-.282-.73.235-1.509-.42-1.59-1.143-.1-.899 1.349-.89 2.032-1.47.16-.137-.353-1.637-.361-1.812-.029-.678.589-1.725 1.697-1.32 1.378.504.368 2.098 1.42 2.46M7 17.66c1.058.024 3.261-.15 3.261-.15M8.485 22.03c.603.014 1.208-.075 1.813-.06m4.358-.846s1.598-.07 1.97-.03m2.473 3.447 3.349-.282m-.541-6.457s2.204-.046 2.938-.12m-9.715-2.058c.734.017 2.357-.01 2.357-.01m3.153 5.658.809-.046m-5.89-10.196c-1.128.074-3.435.67-3.435.67s-1.978.803-3.017 1.616c-2.482 1.94-2.452 5.204-1.399 7.844 1.41 3.533 5.444 4.7 7.85 7.311.148.16.289.326.423.497l.009.012c.589-.588 1.886-1.474 2.581-2.03 1.604-1.283 3.266-1.776 4.61-3.456 2.378-2.973 2.659-7.685-.69-10.196-1.728-1.297-2.066-1.485-4.836-2.043l-2.096-.225Z" stroke="currentcolor" stroke-width="1.5" stroke-miterlimit="10" stroke-linecap="round" stroke-linejoin="round"/>
    </symbol>
    <symbol id="brussels-sprout" viewBox="0 0 32 32">
      <path d="M10.895 26.527c2.348.069 4.462-.434 5.24-.952 1.704-1.136 1.786-2.538 1.36-4.661-.434-2.175-4.152-1.802-5.341-.613m-2.871-4.953c.504-.252 1.08-.672 1.683-.773 2.727-.454 5.78 1.611 5.78 4.637m-9.865-.68c-.511 1.429-.41 2.756.714 3.913m-1.327-7.588c-1.02-1.02-1.548-3.463-.748-5.41 1.565-3.81 4.209-5.02 8.068-4.205 1.736.366 2.04.88 3.08 2.176m-5.752 6.884c-1.191-1.157-.483-2.668.184-3.085 1.127-.705 2.612.114 3.674-.476 1.185-.659.923-2.99 2.382-3.233 2.03-.338 2.858 3.096 1.769 4.73M11.78 5.195c1.599 1.19 1.266 4.613.85 5.444m-2.687-3.13s-.674.394-.817.68m-1.361 1.837c-.612 1.055-.34 2.075.068 2.756m8.744 4.933c2.28-.986 3.14-.021 3.743.409 1.329.949 1.163 4.561-.068 5.546-.778.622-1.834.578-2.79.578m1.633-.034c4.933-.068 5.803-.737 6.77-1.871 1.77-2.076 1.637-5.883 0-7.792-.464-.542-2.745-3.064-3.64-1.871-.681.908.89 1.992.579 2.926-.1.296-.692.442-.92.612-.846.636-1.21 1.845-.918 2.722m-5.954-3.674c1.055-1.668 3.437-3.777 7.145-2.382M11.304 26.527c-3.785 0-8.2-3.232-7.145-7.519.223-.907 1.19-4.048 3.776-4.117 1.598-.042 1.167 1.204 1.77 2.008.398.531 1.574.42 2.177 1.225 1.049 1.398-.69 2.573-.408 3.98.134.673 1.462 4.424-.17 4.424Z" stroke="currentcolor" stroke-width="1.5" stroke-miterlimit="10" stroke-linecap="round" stroke-linejoin="round"/>
    </symbol>
    <symbol id="cabbage" viewBox="0 0 32 32">
      <path d="M14.21 5.664c.264.903-.782 1.641-1.276 2.135-1.373 1.373-3.39 2.4-4.11 4.319-.762 2.031.943 2.422 1.115 4.134.123 1.23-.452 2.363-.349 3.6.164 1.966 3.688 5.573 5.76 5.573m-1.115-19.81c-.39-.78-1.738-.683-2.415-.44-1.76.628-3.756 1.732-4.83 3.343-3.309 4.962-1.96 12.312.212 14.264 2.173 1.952 5.164 3.627 8.605 3.377m.38-.664c1.107-2.216 3.358-3.98 4.04-6.433.46-1.656-.79-2.614-.592-4.2.136-1.087 1.102-2.103 1.405-3.07.426-1.364-2.786-3.638-1.185-5.921.214-.305 1.476.557 1.835.766 1.621.946 3.053 2.74 3.878 4.39.636 1.27.937 2.056 1.11 3.44.121.966.16 2.338-.018 3.318-.412 2.263-2.117 4.648-3.716 6.247-2.018 2.017-3.039 2.337-7.587 2.117M14.271 5.447s3.121-.695 5.104.893M5.735 19.48c.241-.482 1.231-1.649 1.231-1.649m-1.695-4.343c0-.16 1.291-.72 1.291-.72m18.24 2.74s1.466 2.19 1.65 2.555m-3.253 2.183 1 2.276m-8.315 2.462c-1.45-2.902-2.153-5.731-1.788-9.01.077-.694.241-2.373.514-3.028.43-1.028 1.46-2.036 1.46-2.036m-1.069 10.358 1.533-1.927m-4.436.348 2.253 1.835m-1.865-7.604c0-.04.961 1.5 1.192 1.96m.673.186c.726-.484 2.3-1.51 2.3-1.51" stroke="currentcolor" stroke-width="1.5" stroke-miterlimit="10" stroke-linecap="round" stroke-linejoin="round"/>
    </symbol>
    <symbol id="kale" viewBox="0 0 32 32">
      <path d="M18.345 28.155c-3.565 0-4.606.072-8.355-1.923-1.327-.706-3.994-2.807-4.711-4.16-1.356-2.563-1.463-5.785-1.1-8.564.326-2.502 2.74-8.265 5.777-8.872 2.136-.427.961 3.746 1.65 4.711.665.931 3.37-2.677 4.437-.275.283.638.13 1.322-.172 1.926-.94 1.88-2.586 4.1-.55 5.88.27.237.761.757 1.135.757m-5.021-10.42c.349-.699 3.026-2.235 6.73-1.765 2.1.266 4.119 1.213 4.996 2.97M11.297 5.426c-.17-.34.658-.829.86-.998.82-.683 2.006-1.269 3.13-1.41 1.117-.14 2.903.507 3.988.757.891.206 2.27-.516 4.002.72 1.003.714 1.1 1.554 1.5 2.753M8.616 8.66c-.31.62-.826 1.135-1.17 2.614m-.619 4.264c0 3 1.926 9.216 5.33 11.692m-2.2-3.026.86-2.407m-3.233-3.3 1.238-1.72m8.941 11.038c1.341-1.307 6.672-7.359 6.912-13.102m-2.923 3.336.791 2.751m-3.301 1.582.688 2.063m.653.103c.468 0 1.72-.103 1.72-.103m.894-3.852c.487-.244 1.077-.332 1.582-.584m-6.895 7.944s-1.47-.688-1.943-1.066c-1.82-1.456-2.333-4.417-1.445-6.638.352-.879 1.751-.574 2.03-1.547.473-1.658-.374-3.342.756-4.849.613-.818 2.641-.012 3.714-1.238 1.224-1.399 2.09-5.884 5.02-4.71 2.157.861 2.417 3.868 2.305 5.776-.31 5.255-.448 8.116-4.23 11.9-.978.976-1.616 1.753-4.54 2.44-1.536.362-1.667-.068-1.667-.068Z" stroke="currentcolor" stroke-width="1.5" stroke-miterlimit="10" stroke-linecap="round" stroke-linejoin="round"/>
    </symbol>
    <symbol id="celeriac" viewBox="0 0 32 32">
      <path d="M8.342 16.177h3.461m8.787 7.99h3.69m-2.739-5.593h2.663M7.277 22.416h3.157m-.449 2.516c.006.55-.022 1.06.645 1.45.503.296 1.592.294 2.374.294m-.664-13.01s.552-1.304 2.245-1.77m1.608-3.028c-.338-.338-.72-5.11-.62-5.51.115-.46 2.015-.453 2.354-.114.22.22-.36 4.31-.672 5.774m-3.08.64c-.706-1.479-3.285-3.965-3.285-4.284 0-.444.792-1.62 1.674-1.103.835.49 2.68 4.236 2.954 4.921m4.16.52c.575-.835 3.507-3.636 3.347-3.957-.121-.242-1.179-1.834-1.81-1.269-1.071.962-2.29 3.381-2.87 4.54m-1.71.4s-2.892-.128-4.984 1.312c-1.078.742-2.777 1.597-4.222 7.075-.557 2.11-.799 7.621.722 9.396 1.86 2.17 8.79 1.936 11.488 1.712 1.138-.095 3.31-.572 3.918-1.636 1.816-3.178.802-9.883-.532-13.086-.686-1.645-2.309-3.259-3.88-4.07-.8-.413-2.51-.704-2.51-.704Z" stroke="currentcolor" stroke-width="1.5" stroke-miterlimit="10" stroke-linecap="round" stroke-linejoin="round"/>
    </symbol>
    <symbol id="leek" viewBox="0 0 32 32">
      <path d="M14.284 9.098c.525-2.224-.21-6.33.062-6.7.512-.694 1.868-.297 2.026-.17.55.444.573 6.048.573 6.048m-2.363 7.535c.146.939.267 2.294-.202 3.86m-.689 3.684c-.125 1.384.116 2.378.884 3.213m-.656 3.772.367-1.392m1.235.073.083 1.718m1.047-1.844.8 1.473M9.063 3.07c2.373 4.417 3.6 8.372 3.356 13.9-.129 2.906-2.385 8.693.065 11.045 1.48 1.42 5.978 1.347 6.61-1.323.882-3.733-.96-5.747-.829-9.53.048-1.394.268-4.462.603-5.811.405-1.636 3.405-8.209 3.405-8.209s-1.127-1.151-2.377-.885c-.242.052-1.374 3.147-2.18 4.64-.408.755-1.997 4.669-2.082 5.649-.005.065-4.084-9.63-4.523-9.93-.999-.685-2.106.145-2.11.192a.474.474 0 0 0 .062.262Z" stroke="currentcolor" stroke-width="1.5" stroke-miterlimit="10" stroke-linecap="round" stroke-linejoin="round"/>
    </symbol>
    <symbol id="squash" viewBox="0 0 32 32">
      <path d="M15.02 6.01s-.71-2.632-.546-3.445c.114-.568 1.828-.773 2.098-.308.472.809.156 3.733.156 3.733m-2.933 3.735c-1.085 1.165-1.085 2.394-1.05 3.703.049 1.765.255 2.077.022 4.191-.162 1.468-1.568 3.039-1.568 3.039m-1.095 3.902s-.393 2.284 1.838 2.767m4.257-18.246c.356 2.155-.176 7.221.299 9.12.376 1.502 1.474 2.278 1.852 3.753.75 2.923-.035 5.087-1.53 5.943m4.32.098c1.845-2.429 1.943-3.88.976-5.864m-3.36-10.916c.53 1.579.376 2.358.325 3.268M15.8 6.04s-1.025-.091-2.19.537c-1.318.71-3.582 1.923-3.58 7.262 0 1.673.107 3.017-.183 3.808-.947 2.584-3.187 4.827-2.803 7.9.408 3.264 2.943 4.427 6.01 5.04 1.31.262 2.81-.494 4.136-.494 1.737 0 4.034.581 5.678-.123 3.02-1.295 3.274-7.807 1.516-10.15-.555-.74-2.421-2.419-2.627-3.244-.486-1.944-.312-3.793-.68-5.864-.796-4.492-4.937-4.69-4.937-4.69l-.34.018Z" stroke="currentcolor" stroke-width="1.5" stroke-miterlimit="10" stroke-linecap="round" stroke-linejoin="round"/>
    </symbol>
    <symbol id="truffle" viewBox="0 0 32 32">
      <path d="M21.721 9.262c-1.05-.874-3.751-1.136-5.52.257-.392.309-1.84 1.978-1.981 1.896-.151-.087-.355-3.275-3.734-3.02-1.633.123-2.784 2.006-2.593 3.622.114.96.95 1.944.786 2.106-.016.017-2.515-.486-3.534.117-2.485 1.469-2.377 5.216-1.809 7.065.637 2.072 3.373 4.72 5.759 4.585 2.22-.127 3.018-1.592 5.034-.85.842.31 1.972 3.246 6.392 1.899 1.949-.594 3.128-3.026 2.642-4.832m-1.208-1.643c.786 1.31 2.51 2.583 4.433 1.745 1.802-.786 2.432-3.818 1.113-5.123-.852-.842-1.952-1.811-3.376-1.137m2.192.084c1.035-.685 1.188-2.277.392-3.783-.695-1.317-2.048-1.541-2.261-1.862-.031-.047 2.028-.955 1.554-2.514-.847-2.784-1.343-3-3.896-2.831-1.554.104-2.427 1.469-2.324 3.33M12.178 16.2s-1.371-.581-.854-1.667c.563-1.18 1.821-.566 1.821-.566m-4.573 3.556c-.5.135-1.444.452-1.847 1.508-.527 1.384-.098 3.538 1.785 3.456m5.698-3.555s-.741.898-.205 2.314c.347.914 1.511 1.44 2.412 1.36m2.653 1.238s.952.05 1.372-.76m2.506-5.191-.074.017m-2.828-6.417c1.854.527 2.104 2.859 2.104 2.859" stroke="currentcolor" stroke-width="1.5" stroke-miterlimit="10" stroke-linecap="round" stroke-linejoin="round"/>
    </symbol>
    <symbol id="cauliflower" viewBox="0 0 32 32">
      <path d="M17.358 25.848c.043-.085.968.863 3.875.266 3.485-.716 5.72-1.102 7.445-4.552.213-.426.528-.8.58-1.289.102-.967-.665-1.8-1.659-1.553-1.934.484-2.88 2.527-4.657 3.21-.713.275-1.596-.222-2.341-.157-1.479.128-2.95 1.377-3.418 2.777m3.384 1.5 1.102-1.695M8.357 22.653c.55.83 2.39 2.78 2.39 2.78m15.512-3.37c-.66 1.312-1.515 2.965-1.515 2.965M4.642 16.176c-.456-.91.316-1.895.446-2.007.488-.418 2.191-.519 1.803-.974-2.163-2.54.455-4.388 2.08-4.579.774-.09 1.309.658 1.736.658.028 0 .444-1.35 1.17-1.686 1.035-.477 2.604-.497 3.143.222.264.354 1.13-.093 1.576-.195.459-.105.415-1.862 2.48-1.586 2.57.344 2.665 2.482 2.892 2.482.16 0 1.468-.015 1.8.555.363.62.823.974.488 2.497-.012.058.93-.71 1.767-.014.985.82-.224 2.243.34 2.304 2.535.273 2.835 3.453 2.229 4.665m-20.28-1.534c-.643-1.317.73-2.234 1.316-1.842m1.508-2.598c-.093-.283-.083-1.29.87-1.55 1.42-.388 1.862.654 1.95.654.04 0-.067-.995.793-1.489.98-.563 1.676-.36 2.204.4m1.938 1.846c1.06-1.06 2.747-.442 2.868 1.08m-8.736 6.183c-.887-1.97.552-2.372 1.553-2.079m4.34-.605c.99-1.31 3.402.007 2.537 1.821m-4.05 6.954c.242-.917-2.17-2.252-2.96-2.434-.607-.14-1.43.05-1.973-.132-.28-.093-1.409-1.813-1.816-2.183-.514-.469-1.118-.83-1.815-.948-.49-.08-.948.124-1.369-.237-1.116-.957-1.439-2.685-2.763-3.499-.704-.434-1.539.474-1.657 1.105-.279 1.486.587 4.02 2.894 5.973 1.928 1.632 4.436 2.116 6.894 2.526.82.136 4.324.747 4.566-.17Z" stroke="currentcolor" stroke-width="1.5" stroke-miterlimit="10" stroke-linecap="round" stroke-linejoin="round"/>
    </symbol>
    <symbol id="bean" viewBox="0 0 32 32">
      <path d="M19.286 10.418c.034 1.06 2.591 1.62 3.382-.686.79-2.306-.757-2.71-.757-2.71m-3.12 11.434c-.316.511-.193 1.978 1.565 2.19 1.067.128 2.396-1.153 1.742-2.049m-12.094.485c-.349-.259-1.652.943-.763 2.537.968 1.733 2.756 1.282 3.166.995m-5.424-1.63c-.085.474.019 1.638.795 2.322m.786-10.575.379.395m7.67 6.565c-.017.294.093.39.157.52M20.614 9.15c-.753 1.258-2.637 1.292-2.59 3.411.034 1.575 1.559 2.232 2.809 2.313 1.975.128 3.767-1.139 4.755-2.73 1.245-2.004.886-5.342-1.147-6.783-.816-.578-1.744-.37-2.346-.006-1.767 1.07-.743 2.561-1.481 3.795Zm-.904 9.394c-.78-.357-1.884-1.235-2.939-1.2-.93.03-1.432.644-1.687 1.114-1.061 1.955.619 4.241 2.401 5.083.8.38 2.685.58 3.553.412 1.966-.382 4.123-2.273 3.595-4.237a2.754 2.754 0 0 0-.407-.853c-1.231-1.76-3.011.37-4.516-.319Zm-8.341 2.621c.299.266.612.664.987.942 1.557 1.157 1.749 3.14.104 4.354-.895.66-3.827.27-4.728-.252-1.678-.97-2.896-3.27-2.714-5.242.169-1.819 2.176-4.725 4.2-4.06 1.881.617 1.017 3.248 2.151 4.258ZM10.407 9.85c-.32.641-1.443.29-1.937.31-.914.035-1.819.71-2.148 1.571-.518 1.354.511 3.087 1.756 3.447 1.617.47 3.132.584 5.07-.735 2.583-1.758 3.293-3.966 2.679-5.81-.482-1.45-2.323-2.228-3.579-1.583-.961.493-1.379 1.877-1.841 2.8Z" stroke="currentcolor" stroke-width="1.5" stroke-miterlimit="10" stroke-linecap="round" stroke-linejoin="round"/>
    </symbol>
    <symbol id="chinese-cabbage" viewBox="0 0 32 32">
      <path d="M15.57 4.438c-.04.02.176 1.527.133 1.787-.14.835-1.953 1.39-1.953 2.681 0 1.178 1.577 1.242 1.324 3.012-.132.927-1.124 1.665-.96 2.648.203 1.217 1.72 2.021 1.192 3.607-.743 2.23-2.283 2.791-1.986 5.461.12 1.073 1.16 2.55 2.052 3.144.38.254 1.423 1.523 1.423 1.523m-.794-24.227s-1.645-.09-2.383.033c-3.555.592-4.916 5.034-5.329 8.34-.46 3.682-.728 12.412 2.085 14.398 2.358 1.664 4.37 1.588 6.388 1.555m.728-23.83c.588 1.764 2.284 2.251 2.714 4.303.245 1.168-.641 2.624-.548 3.601.184 1.926 1.409 1.463 1.673 2.952.337 1.892-.872 2.425-.695 3.31.202 1.008 1.556 1.655 1.357 4.931-.11 1.824-1.811 3.686-3.409 4.005-.348.07-.972.275-1.324.1m-1.82-23.698c4.104-.53 7.256 1.841 8.54 5.262 1.144 3.054.726 6.996.462 10.161-.215 2.591.227 5.275-1.688 7.381-1.314 1.446-3.594 1.555-5.427 1.555m.297-1.026c.464-1.754.795-6.32.331-8.737M16.2 24.098l1.622 1.357m.199.1 1.621-1.193m-3.144-3.773 1.49 1.357M16.96 9.601c.662 1.291.496 3.343.496 3.343" stroke="currentcolor" stroke-width="1.5" stroke-miterlimit="10" stroke-linecap="round" stroke-linejoin="round"/>
    </symbol>
    <symbol id="fennel" viewBox="0 0 32 32">
      <path d="M7.001 6.645c-.023.22.283.577.375.786.33.75 1.455 2.486 1.497 3.167.096 1.598-.87 3.68-1.046 5.355-.287 2.727-.465 5.18-.084 7.889.082.574.548 2.469 1.068 2.817 2.182 1.46 6.621 1.583 9.368.977.645-.142 2.673-.531 2.954-1.302.444-1.217.783-2.134 1.034-3.431.765-3.954.056-9.103.054-10.15-.003-1.902 1.963-5.33 1.907-5.726-.052-.371-1.56-.994-1.899-.947-.368.052-2.048 3.532-2.768 4.115-1.16.939-3.026 1.644-3.873 2.97m-8.54-6.54s1.724-1.821 2.423-.972c.857 1.04 1.23 2.58 1.953 3.576 1.868 2.572 4.662 4.312 6.177 7.199.366.697 1.104 1.896 1.104 1.896M12.793 9.99s.869-.931 1.186-1.645c.426-.958.646-3.1.938-3.252.277-.145 1.723-.116 1.856.048.41.507-.075 1.678.106 3.21.156 1.325 1.073 1.997 1.073 1.997M7.747 17.98s1.455 2.527 1.64 2.756m1.472 2.325s2.807 3.865 4.06 4.665m5.124-7.26 1.659 2.445m-9.833-9.596c1.236 1.506 2.728 3.976 2.728 3.976m1.373 2.504c.157.193.416.62.416.62m1.368 2.336s1.788 2.478 2.348 3.763m-7.784-7.035c1.461 2.766 3.249 5.527 5.302 7.977m-7.975-12.3 1.203 1.836m7.442-3.076c.191-.343.73-.951 1.087-1.103" stroke="currentcolor" stroke-width="1.5" stroke-miterlimit="10" stroke-linecap="round" stroke-linejoin="round"/>
    </symbol>
    <symbol id="artichoke" viewBox="0 0 32 32">
      <path d="M12.586 19.307c.29-.58.707-2.143 1.694-3.337.724-.878 1.452-1.554 1.584-1.58 0 0 1.089.813 1.31 1.073 1.058 1.233 1.622 2.5 2.057 4.023m-1.05-2.855c1.637-2.784 6.756-4.204 6.756-4.204s.644 3.966-.819 5.508m-16.396-.137c-.612-1.33-.388-3.32-.143-4.302.032-.128.447-1.282.447-1.282s.999.591 1.282.745c1.333.727 3.726 1.947 4.23 3.732m-1.19-2.33c1.262-3.414 3.784-4.5 3.784-4.5s3.11 2.053 3.631 4.61m-1.247-3.21s1.185-1.683 1.38-1.894c.854-.925 2.592-2.18 2.592-2.18s.645.845 1.115 2.153.296 2.067.296 3.216m-14.49.102s.068-2.677.352-3.535c.286-.858.591-1.349.769-1.349.902 0 1.886.85 2.448 1.442.307.324 1.133 1.193 1.339 1.734m-2.592-2.874s1.007-1.384 1.15-1.522c1.012-.975 1.951-1.682 2.333-1.492.809.405 1.715 3.84 1.424 4.82m-.082-3.004s1.404-1.709 1.627-1.858c.296-.197 2.046 1.056 3.084 2.74m-7.185 17.477s-.033 1.638.03 1.67c.35.174 4.143.177 4.41 0 .22-.148.149-1.789.149-1.789m-7.63-2.843c.224.225.824.584 1.238.698m3.978-.002-.02-2.19m4.316-1.676s1.015-1.31 1.406-2.216m-.003 4.542s-.005.015-.005.01m0 0c0-.006 0 .005 0 0Zm-10.202-9.45s.118.881.544 1.5m-1.999 3.307c.305.61 1.107 1.65 1.76 1.976m8.415-4.999c.267-.534.478-.557.889-1.662m-2.971-4.02v.09m-2.1 16.22s-2.28.634-3.397.595c-2.793-.095-4.65-1.578-5.715-4.109C6.977 20.434 6 17.996 6 17.996s3.518.16 4.84.83c4.162 2.112 5.44 5.576 5.44 5.576Zm.179-.015c.152.028.712-2.9 3.556-4.825 1.936-1.31 5.572-1.78 5.572-1.78s-.403 3.273-2.558 5.194c-2.836 2.53-6.07 1.486-6.332 1.425-.048-.01-.393-.043-.238-.014Z" stroke="currentcolor" stroke-width="1.5" stroke-miterlimit="10" stroke-linecap="round" stroke-linejoin="round"/>
    </symbol>
    <symbol id="pattypan" viewBox="0 0 32 32">
      <path d="M9.437 12.435c.555 0 .572.036 1.098.036m-3.965 6.79c.273-1.019.858-.49 1.077-.93m1.725-1.669c.434-.688 1.313-2.22 2.714-1.999m1.39 2.384c-.188.791-1.135 1.502-1.313 2.008-.272.774-.466 2.302-1.232 2.574m6.345-6.489c.196.581.675 1.041.894 1.692m.727 2.724c.502 1.004-.386 2.63.535 4.317m.02-11.008s1.272.164 1.794.937m1.943 1.697c1.594.904 2.008 2.09 2.667 3.407m-7.128-8.724c-.055.11.763-1.032 1.579-.919M13.496 24.39s1.03.514 2.452-.337m7.075-4.848s.811.817.06 1.973M6.98 12.937c.304.337-1.343.277-2.356 1.091-1.216.977-1.764 2.426-1.595 3.947.187 1.68 1.64 1.907 2.15 2.672.116.175-.776 1.762 1.628 3.014 1.592.83 3.17-.242 3.118-.242-.165 0-.12 1.653 1.685 3.207 1.236 1.063 4.033.834 5.731-.4.564-.41 1.886-2 1.984-1.968 2.536.846 5.305.038 6.402-2.814.224-.585-.01-2.615.312-2.669 2.728-.45 2.86-1.832 2.876-2.876.036-2.336-2.46-2.725-2.46-2.772 0-1.815.404-3.134-1.28-4.659-.78-.708-1.986-.32-2.142-.577-.144-.238.258-1.112-1.36-1.798-1.233-.523-2.11.901-2.288.901-.2 0 .024-1.379-1.652-1.222-.996.094-.922.737-1.154.737-.223 0-1.386-.934-1.648-1.05-1.079-.48-2.073-.644-3.238-.198C8.846 6.351 9.977 9.24 9.857 9.42c-.063.095-1.504-.524-2.91 1.11-.428.496-.516 1.798.034 2.408Zm6.567-4.557c-.379.257-.169 4.538-.052 4.712.114.172 1.214-.224 2.419.168.263.085.929-.947.977-1.138.087-.352-.936-1.317-.936-1.836-.002-1.416-.592-3.139-2.408-1.906Z" stroke="currentcolor" stroke-width="1.5" stroke-miterlimit="10" stroke-linecap="round" stroke-linejoin="round"/>
    </symbol>
    <symbol id="asparagus" viewBox="0 0 32 32">
      <path d="M20.57 20.598c-2.986.928-5.81 1.802-8.52 3.216-.552.288-1.654.79-2.165 1.159m5.059-5.785c-3.173 1.489-6.244 3.38-9.087 5.423-.502.36-3.92 3.175-3.856 3.942.023.284 1.21 1.166 1.66 1.15.402-.014 1.907-1.448 2.211-1.667.722-.52 1.146-1.015 1.146-1.015m12.379-9.433c-.528.164-1.213.42-1.856.606m1.924-.655c.157-.954 1.156-2.283 1.889-2.841 1.212-.923 2.449-1.21 2.572-1.094.134.125-.246 1.322-.275 1.5-.213 1.3-1.031 2.797-2.099 3.564m-.948 1.905c-.092-.067 1.492.39 1.771.47 2.199.634 3.545.186 3.691-.152.531-1.232-3.365-2.524-4.268-2.243m1.64-2.428c-.04-.126 2.391-.73 2.825-.234.434.495-1.218 2.697-1.471 2.879m-.721-4.756c-.015.01 1.207-.615 1.703-.687.779-.113 1.944-.204 2.61.337.192.155-1.625 1.232-1.941 1.67m-.053 4.57c.85-.264 3.143-1.67 2.441-2.914-.338-.6-2.112.079-2.628.194m1.412-2.811c.184-.132 1.636.466 1.636.466s.38 1.289-.235 2.016m-14.691-5.37s1.29-1.65 1.584-2.106M9.701 17.14l2.745-2.964M6.014 24.212c-.369.115-1.387-1.005-1.161-1.53.1-.231 1.654-1.756 2.809-3.05m2.722 1.802c1.335-1.847 2.754-4.038 4.288-5.74 1.171-1.3 2.731-3.003 4.161-4.031m-2.946-2.28c-.768-1.07.726-5.482 1.955-5.68.276-.044 1.386 3.06.933 5.206m-.017.013c.061-.375 1.787-.687 2.088-.766.759-.2 3.402-.283 3.467.47.013.155-.331.88-1.972 1.948-.556.362-2.8 1.04-3.522.922m-.553-6.974c.035-.212 1.343-1.243 1.906-1.38 1.052-.254 1.725-.09 1.725-.09s-.354 1.298-.716 2.103c-.357.794-.615 1.58-.677 2.658m.337-1.508c.605-.47 3.008-1.173 3.759-.748.237.133-.141 1.94-.822 2.479m-1.833-4.553s1.766-.244 1.86-.132c.306.366.182 2.164.182 2.164M9.161 24.724c.019.039 1.367 1.325 1.339 1.458-.086.414-3.02 1.204-3.801.586m3.327-9.184c-.007 0-.152-.167-.365-.407-.469-.528-1.278-.936-1.45-.783-.627.558-.813 1.678-.167 3.334m4.802-5.41s-.357-.478-.572-1.304c-.215-.826-.122-1.503.324-2.078.135-.174 1.857 1.629 1.857 1.629m.47 7.67s.248-1.1.304-1.28c.262-.838.51-1.396 1.39-1.836.093-.046.463 1.452 1.124 2.334" stroke="currentcolor" stroke-width="1.5" stroke-miterlimit="10" stroke-linecap="round" stroke-linejoin="round"/>
    </symbol>
    <symbol id="berry" viewBox="0 0 32 32">
      <path d="M16.204 17.825c1.13-1.331 2.181-1.874 3.018-2.115 2.351-.678 5.201.458 6.086 2.669.773 1.933.327 4.277-1.224 5.828-1.969 1.97-6.743 2.15-8.145-.655m-4.636-8.776C9.3 12.774 11.62 8.997 13.81 8.12c2.594-1.037 5.095.223 6.631 2.374.578.809 1.423 4.364.246 4.953m-12.515.275c-1.16-.842-2.287-2.343-2.767-3.714-.655-1.874-.359-4.95-.19-4.993.617-.154 2.96.848 3.597 1.23.795.477 1.932 1.437 2.358 2.29m9.334-.073s1.251-.809 1.534-.95c.692-.346 4.465-1.225 5.075-.614.297.296-.045 1.78-.123 2.128-.38 1.709-1.572 4.266-3.192 5.076m-2.37-1.962c.72-.36 1.874-.988 2.57-1.883M10.537 13.77c-1.091-.546-2.04-1.558-2.46-2.6m6.66 1.154s.069-1.104.753-1.788m-1.447.676c.934 0 1.17.266 1.977.67m2.658 6.333s1.74.874 2.045 1.33m-1.75.133s.78-1.354 1.454-1.692m-11.973 1.51c.035-1.307.794-2.184 1.776-2.453m-1.75 4.845c.186.502.402.82.837 1.226m3.085-8.209c-1.76-.246-3.26-.015-4.555 1.171-2.834 2.6-2.39 7.548 1 9.242.593.296 1.292.45 1.976.526 7.263.807 7.787-10.068 1.58-10.939Z" stroke="currentcolor" stroke-width="1.5" stroke-miterlimit="10" stroke-linecap="round" stroke-linejoin="round"/>
    </symbol>
    <symbol id="raspberry" viewBox="0 0 32 32">
      <path d="M15.284 11.08c-.457-2.02-1.184-3.218-4.52-3-2.405.157-4.499 4.82-1.75 7.111 1.27 1.058 3.871.927 4.835-.13m-6.105-1.253c-1.512 0-2.23 2.943-1.383 4.487.79 1.44 2.71 2.114 4.318 1.496 1.109-.426 1.582-.917 1.864-2.243m-.052.21c-1.072 3.924 3.227 5.145 4.904 4.63 1.315-.405 2.154-1.793 2.314-3.077.075-.597.151-2.383-.713-2.879m-3.097-1.056c2.244 2.245 5.177.568 5.758-2.047.518-2.333-1.71-4.776-4.396-4.273-.824.155-1.785 1.071-1.785 1.071m6.152.775c-.077-.155.478-.216.593-.226a2.598 2.598 0 0 1 1.778.508c1.223.917 1.75 2.458 1.58 3.979-.166 1.497-1.418 2.54-2.906 2.54-.662 0-2.628-.104-2.5-1.807m2.773 1.8c2.435.08 2.581 2.531 2.554 3.013-.033.58-.468 2.08-1.934 2.861-.477.254-2.206.465-2.989.046-1.67-.892-1.644-2.218-1.644-2.218M7.156 19.316s-.346.494-.456 1.434c-.108.926-.037 2.061.508 2.823 1.496 2.088 3.838 2.088 5.418 1.27.698-.362 1.58-1.463 1.58-2.343m-1.213 2.343s-.56 1.523 1.429 3.058c1.988 1.536 3.906.41 4.984-.79 1.412-1.573.922-3.467.393-3.995m-3.77-13.722c-.089.179-.069-1.745-.101-2.076-.123-1.265-.716-2.492-.677-2.568.12-.24 1.353-.704 1.585-.737 1.9-.271 1.228 3.698 1.228 4.677m-8.119 3.397s-.113-.988.536-1.468M9.014 22.246c.07.538.677.988.677.988m7.353 3.083s1.017-.098 1.417-1.453m-.984-6.44c.153.306.195.698-.099 1.39" stroke="currentcolor" stroke-width="1.5" stroke-miterlimit="10" stroke-linecap="round" stroke-linejoin="round"/>
    </symbol>
    <symbol id="cherry" viewBox="0 0 32 32">
      <path d="M13.4 16.924c1.313-2.626 3.423-4.918 3.423-8.051m.57-.088c-.105-.211.482.617.593.768.406.553.662 1.187.855 1.842.369 1.253 1.65 5.056 1.953 5.66m-3.642 2.194c.369-.737 1.774-1.457 2.567-1.58.39-.06.847.04 1.228-.087.97-.323 1.142-1.456 2.392-1.382 3.698.218 5.32 5.333 3.875 8.019-1.36 2.524-3.943 3.583-6.512 3.393-.808-.06-3.644-.945-3.813-2.44m.876-16.015c.863-.81 2.112-1.686 3.287-1.972m-4.177 2.327c0-1.095-2.502-3.131-3.205-3.77-.408-.372 1.117-2.305 1.946-1.581.709.619 1.549 2.195 1.928 2.953m-7.622 10.89c-1.062.04-1.945.94-2.061 1.888m-.23 3.35c0 .509.312.892.648 1.227m16.607-3.212c.11.93-.03 1.925-1.598 2.78m-10.305-6.805c0-.325-.998-1.251-1.274-1.4-1.621-.87-3.076-.053-4.37.674-2.904 1.634-2.935 6.55-1.022 8.94.824 1.03 2.218 3.008 6.486 2.182 1.613-.312 4.76-2.152 4.59-5.202-.167-3.02-.782-3.63-1.977-4.483-.3-.214-.823-.458-1.204-.493-.331-.03-1.23.14-1.23-.218Zm4.026-8.645c.007-.31.666-1.23.867-1.513 1.857-2.629 3.976-2.807 5.004-2.977.875-.144 3.786-.014 4.056.256.283.283-1.353 2.566-1.601 2.83-1.304 1.392-2.35 2.377-5.045 2.565-.891.062-3.304-.056-3.281-1.16Z" stroke="currentcolor" stroke-width="1.5" stroke-miterlimit="10" stroke-linecap="round" stroke-linejoin="round"/>
    </symbol>
    <symbol id="apple" viewBox="0 0 32 32">
      <path d="M13.87 10.595c-.209-3.08-2.12-5.034-2.29-5.451-.374-.921 1.364-1.196 2.298-1.136 1.193.077 1.722 5.014 1.426 6.457m.658-.182c-.143-.534.931-2.003 1.203-2.447 1.313-2.14 2.996-2.292 5.33-2.417.567-.03 2.784.233 3.59-.154.326-.157-1.39 2.553-1.575 2.819-1.375 1.982-3.363 2.803-5.824 2.3m-2.08.014c1.505-1.427 1.558-.893 3.411-2.087m-9.348 4.441c-2.567.526-2.437 2.921-2.495 3.206m.222 4.613c-.01 1.647 1.566 3.731 2.155 4.12m4.7-13.126c.474.283-.477-.23 2.25-.988 1.755-.488 3.511.551 4.332 1.163 1.961 1.463 3.743 3.423 2.375 8.56-.972 3.652-3.16 6.643-7.108 7.415-1.17.23-2.183.061-3.32-.027-.855-.066-2.323.017-3.163-.284-3.758-1.344-5.29-5.485-5.58-9.265-.13-1.69.051-3.488 1.011-4.947 1.546-2.349 3.683-3.183 6.314-2.943.527.048 1.784.66 2.888 1.316Z" stroke="currentcolor" stroke-width="1.5" stroke-miterlimit="10" stroke-linecap="round" stroke-linejoin="round"/>
    </symbol>
    <symbol id="pear" viewBox="0 0 32 32">
      <path d="M18.496 11.947c.21-1.095 2.42-1.561 3.3-1.235.289.106 2.253.981 2.646 4.106.406 3.236 2.792 4.513 2.534 7.367-.191 2.117-1.476 4.89-5.662 4.906m-.425-16.832c-.303.085.48-2.24 1.685-3.376.296-.28 1.767-.313 1.793 1.22.009.534-2.01 2.183-2.244 2.49m-7.885-1.334c.098-.509 1.843-1.457 3.15-2.584m-5.73 2.661c-.938-1.824-3.316-3.558-3.316-3.558s.168-1.671 1.666-1.49c1.235.149 2.372 3.211 3.043 4.808m-.753 3.587c-.6.9-.785 2.266-.785 2.266m-1.192 4.156c-1.34 2.898-.424 5.92 1.268 6.485m1.885-16.26c-.387-.069-1.388.1-1.797.25-3.131 1.156-2.548 5.077-3.375 7.478-.427 1.237-1.56 2.511-1.934 3.764-1.005 3.373-.02 7.358 3.807 8.46 1.168.337 2.72-.094 3.914 0 1.585.127 2.886.518 4.372-.164 1.014-.466 2.235-1.202 2.903-2.074 3.52-4.597.602-9.334-2.16-13.409-.918-1.358-2.053-2.537-3.46-3.353-.967-.56-.894-.705-2.27-.951Zm.466.03c-.813-.135.62-3.695 2.546-4.959 1.795-1.178 4.04-1.536 4.272-1.358.133.102.033 1.209-.426 2.704-.94 3.067-3.525 4.093-6.392 3.613Z" stroke="currentcolor" stroke-width="1.5" stroke-miterlimit="10" stroke-linecap="round" stroke-linejoin="round"/>
    </symbol>
    <symbol id="gooseberry" viewBox="0 0 32 32">
      <path d="M15.239 15.375c0 2.233 2.374 5.721 4.081 7.161 1.047.883 4.048 2.99 4.902 2.99m-7.918-10.478c2.204.257 3.641 2.067 3.641 2.067m2.73 3.141s1.177.686 1.98 4.933m-10.782-8.387c-.214 1.927 1.072 4.371 2.085 5.384m2.484 2.524s1.471 1.438 4.731 1.928m-1.984-12.652s.603-.44.904-1.378c.831-2.587.315-3.565-.06-4.266-1.687-3.153-4.557-4.937-8.412-4.161-4.748.955-6.626 4.543-7.018 7.483-.204 1.535.8 3.446 1.373 4.497.839 1.538 3.042 2.753 4.589 2.843m-4.334-3.113c2.367-.837 4.225-1.768 5.394-2.776m2.881-1.903c1.771-.885 3.463-2.239 4.843-3.619m-13.743 7.7c0-1.57 1.166-3.376 2.385-4.29m2.913-2.836c2.267-1.422 5.455-2.352 7.676-1.617M9.282 17.44l2.412-.758m7.901-5.053s1.407-.873 2.11-2.58M7.877 18.987l.218-2.396m-2.164 1.36 1.805-1.437M5 16.076l2.673-.144m16.358 10.573c.464.532.955 2.083.955 2.083M24.481 26c.676.397 2.095 1.345 2.095 1.345m-1.465-2.09c.811.172 2.098.235 2.098.235M16.594 14.407s-1.963.798-3.086 2.636c-.946 1.55-1.152 3.488-.658 5.296.97 3.56 6.836 6.721 10.132 4.452 5.601-3.855 2.275-8.773 1.215-10.16-1.09-1.43-2.568-2.689-4.829-2.797-1.149-.054-2.734.558-2.734.558l-.04.015Z" stroke="currentcolor" stroke-width="1.5" stroke-miterlimit="10" stroke-linecap="round" stroke-linejoin="round"/>
    </symbol>
    <symbol id="strawberry" viewBox="0 0 32 32">
      <path d="M12.043 10.399s-.902-.263-1.146-.315c-.578-.126-2.582-1.334-2.572-2.001.007-.401.814-.13.996-.109.367.042 2.74.376 2.924.103.198-.293-.282-1.135-.339-1.428-.182-.94-.357-3.015.611-3.639.148-.095.82.503.928.614.605.618.898.881 1.326 1.537.405.62.685 1.373 1.483 1.546.537.116 1.223-.577 1.651-.821.977-.56 3.13-1.599 4.31-1.13.643.257-1.244 2.51-1.559 2.845-.036.038-.26.234-.214.307.025.039 3.235-.379 3.403-.205.498.513-1.797 2.688-1.797 2.688M14.29 8.097c.061.556.895 1.236 1.43 1.352m1.385-.142c.363-.18 1.246-.594 1.335-1.006m-1.884 1.196c2.947-.274-1.585.287-1.869.36-.66.169-1.517.237-2.165.434-2.116.64-4.489 1.8-5.28 4.156-1.186 3.53 2.257 10.02 4.586 12.425 1.137 1.173 2.312 2.376 4.004 2.458 1.648.08 3.523-1.742 4.535-2.848 2.752-3.005 6.01-7.713 4.642-12.046-.799-2.53-1.71-3.496-4.505-4.267-.889-.245-2.94-.593-3.846-.621-3.526-.112-.303-.033-.102-.051Zm-5.346 6.149c-.054.136-.119.008-.132.133-.01.102.143 1.773.42 1.594.521-.335-.089-2.237-.288-1.727Zm5.366 1c-.305-.866-.638.9-.568 1.262.21 1.078.691-.913.568-1.262Zm4.864-1.17c-.585-.573-.639 1.322-.358 1.586.43.403.67-1.282.358-1.587Zm-7.518 6.826c-.74-1.209-.629.164-.322.74.615 1.157.66-.19.322-.74Zm5.208-.787c-.42-.345-1.068 1.035-.865 1.477.027.06.162.035.203.015.464-.23 1.102-1.132.662-1.492Z" stroke="currentcolor" stroke-width="1.5" stroke-miterlimit="10" stroke-linecap="round"/>
    </symbol>
    <symbol id="greenbean" viewBox="0 0 32 32">
      <path d="M11.365 23.03c-.65 2.473-1 7.084-.158 7.716.374.28 2.943-3.751 3.84-4.947 1.58-2.105 4.393-7.16 4.686-7.745m-5.923-3.645c1.823-2.799 3.521-5.784 3.971-8.33.068-.389.312-1.109.766-4.578.01-.072.914 2.563 1.251 3.406.831 2.077 1.87 4.462.781 6.638M5.23 25.625c-.075-.422 2.473-3.346 5.371-5.349m4.063-2.809s3.071-1.112 6.167-3.193m5.133-7.802c.212 1.678-1.735 3.109-3.3 4.227-2.454 1.753-5.5 2.352-8.202 3.58-2.716 1.234-6.328 4.598-8.266 6.834-1.586 1.83-1.22 6.076-.976 6.443.084.126 6.778-5.504 9.047-6.638 4.588-2.294 11.392-5.497 12.822-10.74.291-1.067.36-8.682-2.148-7.68-1.755.702.793 2.157 1.023 3.974Z" stroke="currentcolor" stroke-width="1.5" stroke-miterlimit="10" stroke-linecap="round" stroke-linejoin="round"/>
    </symbol>
    <symbol id="celery" viewBox="0 0 32 32">
      <path d="M11.531 11.482c0-1.003-.718-1.98-.44-3.089.341-1.369 1.617-.99 2.5-1.52 1.612-.967 1.276-2.51 3.678-2.99.37-.075 1.018-.06 1.323.245.573.572.024 1.84-.098 2.451-.145.724.684 1.115.57 2.577m.017.15c-1.13 2.09-1.92 1.076-2.45 1.784-.553.736.247 2.13-.485 2.861-.677.677-2.582-.433-3.193.18-1.252 1.25-2.893 4.412-2.893 4.412s-2.132 3.394-2.064 3.663c.09.364 1.487 1.028 1.787 1.178m.05.022c0-.422 5.128-8.294 5.964-9.129m3.072-8.61c1.218-.999 2.332-1.044 2.561-2.029.457-1.962 2.473-1.68 2.793-1.535 1.875.844.882 3.77.45 4.633m-13.237 4.972s-3.438 5.387-4.513 7.178C5.892 20.606 2.955 24.733 3 26.338c.035 1.267 5.22 3.98 7.109 4.452 1.853.463 3.664-3.41 3.664-3.41s2.192-3.773 3.347-5.699c.928-1.549 1.736-3.094 2.745-4.609.829-1.242 2.605-.467 3.471-.933 1.212-.652 1.608-1.759 1.872-3.074.113-.565.793-.98 1.604-1.98 2.572-3.176 1.107-4.607.654-4.947-2.217-1.663-2.998 1.915-4.628 2.187-.692.115-1.993-.368-3.287 1.59-1.32 1.998.186 2.816-.819 4.366-.26.403-3.65 5.581-5.094 7.988-.38.634-1.546 2.344-1.546 2.344m-5.78-1.003c-.914.913-1.421 2.313-.072 2.987m3.106 1.66.292.165M25.159 8.96l-3.354 4.596m.47-2.712.277 1.308m-5.99-5.103-2.813 4.273m-.23-2.386.663 1.47m9.966.021 1.13.074m-9.364-1.802.972-.024" stroke="currentcolor" stroke-width="1.5" stroke-miterlimit="10" stroke-linecap="round" stroke-linejoin="round"/>
    </symbol>
    <symbol id="rhubarb" viewBox="0 0 32 32">
      <path d="M11.883 11.483c0-1.003-.718-1.981-.44-3.09.341-1.37 1.616-.99 2.5-1.52 1.612-.966 1.276-2.51 3.678-2.99.37-.074 1.018-.06 1.323.245.573.573.024 1.841-.099 2.452-.144.724.685 1.115.571 2.577m.017.15c-1.13 2.09-1.92 1.075-2.45 1.784-.553.736.964 1.633-.442 2.693-1.369 1.032-2.625-.265-3.236.347-1.252 1.25-2.893 4.412-2.893 4.412L8.24 22.274M19.221 5.667c1.218-.998 2.332-1.043 2.561-2.028.457-1.963 2.472-1.68 2.792-1.536 1.875.845.882 3.77.45 4.634m-13.237 4.972s-3.438 5.387-4.513 7.178c-1.03 1.718-4.319 6.09-4.274 7.696M25.511 8.959l-3.354 4.597m-.066-2.485.74 1.305m-5.917-5.327-2.813 4.273m-.318-1.983.752 1.067m9.965.02.84.197m-9.075-1.924.753.335M11.85 30.842s1.447-1.362 2.726-3.919c1.476-2.952 1.741-3.315 2.897-5.242.93-1.548 1.735-3.093 2.745-4.61.828-1.24 2.605-.465 3.471-.931 1.212-.652 1.608-1.76 1.872-3.074.113-.565.792-.98 1.603-1.981 2.572-3.176 1.107-4.606.654-4.946-2.216-1.663-2.998 1.915-4.628 2.187-.692.115-1.992-.368-3.287 1.59-1.32 1.998.186 2.815-.818 4.366-.26.403-3.649 5.581-5.094 7.988-.38.634-1.547 2.344-1.547 2.344M8.49 21.846s-2.862 5.382-3.806 5.539c-.743.124-1.68-.627-1.68-.627m9.918-2.884s-3.776 5.67-3.725 6.03c.182 1.306 2.617.994 2.617.994m-1.184-8.256s5.014-7.861 5.85-8.696m-5.873 8.736S6.877 27.97 7 28.364c.5 1.614 2.158 1.176 2.158 1.176" stroke="currentcolor" stroke-width="1.5" stroke-miterlimit="10" stroke-linecap="round" stroke-linejoin="round"/>
    </symbol>
    <symbol id="pakchoi" viewBox="0 0 32 32">
      <path d="M8.392 29.465c.9 1.803 4.593.98 5.816.079 3.335-2.457 3.238-7.637 5.03-11.043.649-1.234 1.588-3.164 2.908-3.773 1.194-.55 2.578.142 3.615-.982 1.309-1.418.192-1.938-.275-3.104-.224-.56.279-1.426.55-1.886.52-.884 2.857-4.164 1.533-4.991-1.453-.908-1.943 1.815-3.498 1.297m-9.47 13.44c-.164 0 2.052-.637 2.593-3.655m2.122-8.174c-1.69 1.886-4.008 5.383-4.008 5.383m0-2.161c.157.314.45.994.45.994m8.549-3.32s-1.56 3.36-3.521 5.387m.874-.864 1.496-.006M9.61 20.78c-1.611.668-2.004 2.672-2.004 2.672m.078 2.28c0 .524.224.878.59 1.297m6.418-4.474 1.363-2.247m-.216-6.227c.909-.623 2.538.769 2.888-.806.062-.28-.624-1.41.27-1.649 1.309-.348 2.918.652 3.542-1.063.429-1.18-.932-2.1-.786-3.261.108-.865 3.522-4.205 1.257-5.148-1.817-.757-2.09 1.514-3.42 1.847-1.075.269-1.658-1.408-2.828-.983-1.048.38-1.692 1.72-1.454 2.79.127.573.663 1.13.472 1.769-.27.898-.852-.142-2.005.078-.656.126-1.44.875-1.73 1.454-.754 1.51.547 2.152.669 3.498.116 1.274-1.208 3.144-1.807 4.244-.685 1.254-2.061 1.887-3.066 2.829-1.6 1.5-2.631 3.21-2.83 5.384-.192 2.119 2.057 4.762 4.324 4.166 1.927-.508 3.677-2.047 4.637-3.774 1.947-3.505-1.667-8.957 1.867-11.375Z" stroke="currentcolor" stroke-width="1.5" stroke-miterlimit="10" stroke-linecap="round" stroke-linejoin="round"/>
    </symbol>
    <symbol id="leaves" viewBox="0 0 32 32">
      <path d="M16.434 12.418s.377 9.578-.073 13.176M13.97 14.88c1.29.692 2.318 1.81 2.318 1.81m3.04-1.99c-1.937 1.178-2.56 1.875-2.751 2.642m4.714-5.064c.99-.986 4.28-2.758 5.345-2.278.907.41.697 1.827.877 2.542.629 2.5 1.175 4.324-.076 6.827-1.061 2.122-2.93 3.494-5.21 3.277-1.086-.104-3.601-1.312-3.601-2.583m5.662-5.436s-3.75 8.584-5.068 11.222m3.773-8.05s1.603-.807 2.85-.928m-14.514-5.9c-1.443-.833-3.22-3.1-4.923-2.389-1.294.54-1.842 3.454-2.136 4.706-.604 2.565-.254 6.064 1.629 8.072 1.768 1.886 5.093 2.581 7.059.615.57-.57.84-1.47 1.086-2.208M7.643 14.82c0 .414 4.497 6.56 5.633 10.635m-6.004-7.263c1.958.265 3.185 1.304 3.185 1.304m5.922.832c-.706.014-1.916-.382-2.277-.549-1.464-.675-2.466-1.75-3.026-3.27-1.218-3.307.79-6.202 2.896-8.543.51-.566 1.5-1.798 2.28-1.954.757-.152 1.884 1.268 2.354 1.737 2.034 2.035 3.654 6.015 2.787 8.905-.445 1.482-1.476 2.534-2.808 3.241-.416.22-1.464.415-1.464.415s.012.003-.742.018Z" stroke="currentcolor" stroke-width="1.5" stroke-miterlimit="10" stroke-linecap="round" stroke-linejoin="round"/>
    </symbol>
    <symbol id="rucola" viewBox="0 0 32 32">
      <path d="M14.75 8.107c.55 2.334.078 4.411-.382 6.592-1.026 4.858-4.95 9.784-8.834 12.73m6.41-6.244 1.478.072m-.55-9.037s1.299 1.633 1.406 2.202M8.694 28.606s1.769-3.186 3.272-3.98m.075.285c1.43.706 5.66 3.426 6.883 1.475.519-.829.505-3.72.654-3.8.973-.523 2.804 3 4.548 1.893 1.216-.772-.036-2.799.423-3.396.223-.289 1.202-.015 1.495-.056 1.639-.234 3.41-1.766 2.896-3.58-.355-1.256-2.392-1.969-3.58-1.935-.658.02-1.442.478-2.07.11-1.304-.769 1.476-2.782.14-3.567-1.271-.748-4.647 2.01-4.832 3.357m-2.076 5.532c2.173-1.552 5.448-2.297 8.074-2.383m-3.95 1.001s.83.72 1.288.997M8.907 24.046c-1.7-1.08-2.936-2.72-3.671-4.615-.205-.528-.5-1.653.229-1.979.916-.412 3.143 2.001 3.63-.025.236-.975-2.488-2.56-2.221-4.503.259-1.877 3.208.418 3.619-.245.422-.68-3.63-5.068-.88-5.367.786-.085 1.255 1.085 2.112.86.849-.225.354-1.94.3-2.495-.187-1.925 1.629-3.216 3.44-2.456 1.222.513.88 2.105 1.37 3.074.483.953 3.768 1.09 3.27 3.624-.275 1.397-3.114 2.988-3.04 4.233.078 1.272 2.555 1.231 2.044 2.948-.524 1.756-3.433 1.57-3.944 2.605-.525 1.065 1.32 1.458.89 2.745-.636 1.908-5.701 2.515-7.148 1.596Z" stroke="currentcolor" stroke-width="1.5" stroke-miterlimit="10" stroke-linecap="round" stroke-linejoin="round"/>
    </symbol>
    <symbol id="medlar" viewBox="0 0 32 32">
      <path d="M20.388 10.122c-.002-1.059 1.693-.944 3.2-2.346.437-.407 1.77-2.84 1.197-2.616-1.3.51-2.721.332-3.27.4-1.61.194-3.913 1.593-3.087 3.651m-1 .2c.412-.206.625-.976.572-1.394-.096-.756-.955-1.368-1.163-2.03-.43-1.362-.023-2.804-1.245-1.434-.621.697-1.376 1.392-1.446 2.86-.07 1.466.928 2.226.928 2.226m-1.065.018c.236-.768-.356-2.025-.99-2.749-.876-.999-1.836-.56-2.924-.613C9.779 6.28 8.1 5.191 8.1 5.191s-.266 1.982.07 2.835c.282.713.217 2.044 3.26 2.856m1.488 2.597c-2.268 1.728-1.2 4.157-1.2 4.157m1.43 3.335c.456.966 1.522 1.41 1.522 1.41m2.11 5.627s.718-1.628 1.738-2.433c2.608-2.062 6.143-4.419 6.394-9.822.112-2.406-1.886-4.265-3.815-5.277-3.55-1.864-7.967-.992-11.035 1.57-1.256 1.046-2.092 3.011-1.646 5.464.912 5.016 4.43 6.735 6.568 8.155.9.6 1.038 1.153 1.569 1.831l.227.512Z" stroke="currentcolor" stroke-width="1.5" stroke-miterlimit="10" stroke-linecap="round" stroke-linejoin="round"/>
    </symbol>
    <symbol id="melon" viewBox="0 0 32 32">
      <path d="M15.312 3.056C6.602 4.962 4.513 8.687 3.26 10.954.865 15.28 1.949 21.087 6.442 23.391c5.681 2.914 12.802-1.105 16.67-5.193 1.709-1.805 3.42-4.522 3.104-7.139-.275-2.283-1.384-4.369-3.036-5.8-1.292-1.118-3.617-2.606-7.852-2.187M2 15.884c1.046 8.69 4.202 11.515 8.499 13.182 6.801 2.638 16.903-.742 18.232-8.704.755-4.523-1.142-9.013-3.256-11.948M9.479 18.94l2.664-3.78m.775-7.266.535 3.768m-5.92.795 3.746.753m4.186-.659 3.73-2.215m-4.44 4.444 3.155 3.077M8.4 24.234s.707 2.633 3.64 4.992m4.406-5.68c-.128-.016 1.928 4.13 2.463 5.201m4.52-10.394c.784 1.59 1.466 2.192 1.236 8.097m-11.03-9.56s-1.963 2.694-1.111 2.916c4.486 1.167 1.111-2.917 1.111-2.917Zm1.826-6.903s2.86-1.717 2.162-2.253C13.946 4.91 15.46 9.987 15.46 9.987Zm2.13 3.872s2.682 2.12 3.229.837c1.576-3.695-3.228-.837-3.228-.837Zm-6.18-2.993s-.95-3.283-2.14-2.557c-3.43 2.091 2.14 2.557 2.14 2.557Zm-2.25 3.871s-4.375-.796-2.979 1.568c1.936 3.28 2.979-1.568 2.979-1.568Z" stroke="currentcolor" stroke-width="1.5" stroke-miterlimit="10" stroke-linecap="round" stroke-linejoin="round"/>
    </symbol>
    <symbol id="watermelon" viewBox="0 0 32 32">
      <path d="M5.35 10.5c.367.672 4.44 2.315 5.32 2.777 4.033 2.118 8.065 4.295 12.157 6.162 1.424.649 3.396.99 4.625 1.845M5.132 10.558c-.537.292-.373 3.392-.176 4.026 1.27 4.08 2.902 7.359 6.74 9.614 3.772 2.216 7.193 2.02 11.1.56.802-.298 1.765-.546 2.46-1.092.812-.634 1.36-1.614 2.279-2.115M4.89 11.375c-.732.4-2.97 10.086 4.465 15.33 2.998 2.115 7.7 2.734 11.276 1.293 5.443-2.193 6.29-5.524 6.532-5.87M8.2 11.38c1.714-4.255 5.315-7.03 7.905-7.93 3.982-1.382 9.643.486 11.099 4.68.754 2.173.895 3.3.802 5.559-.081 1.959-.406 5.194-1.538 6.82M22.573 3.84c.809 2.026-.102 5.237-.574 6.512m-1.696 4.696L19 17.15m6.25-2.292s-.522 2.172-2.121 4.407M25.022 8.07s.793.748.497 2.189m-14.042 3.082 1.34-2.206m1.652-3.05s2.44-4.262 6.782-4.645m-6.753 17.546c.54.542.865-1.07.865-1.07s-1.108.827-.865 1.07Zm-4.61-3.643c.023.765 1.364-.187 1.364-.187s-1.373-.157-1.363.187Zm9.448 5.053c.765.009-.131-1.37-.131-1.37s-.213 1.366.13 1.37Z" stroke="currentcolor" stroke-width="1.5" stroke-miterlimit="10" stroke-linecap="round" stroke-linejoin="round"/>
    </symbol>
    <symbol id="currant" viewBox="0 0 32 32">
      <path d="M15.853 8.498c1.321 3.962-.246 9.762-2.046 13.363m-1.777.31c.27-5.099-3.753-3.778-4.48-3.438-3.002 1.401-1.248 6.685 1.893 5.638m5.432-1.348a4.303 4.303 0 0 1 1.017-2.668c1.663-1.996 5.866-.692 5.957 1.735.17 4.532-3.696 4.347-5.918 2.667m.112-9.51c-.05 1.158 1.896 3.95 1.896 3.95m-5.986-.117s2.306-.91 3.711-2.314m-2.668-5.217c-.158 0 1.734-.088 2.935-2.162m.087-.396c.401 1.263 2.153 1.902 2.153 1.902m.345.67c-.682 1.04-.697 1.573-.616 2.303.276 2.484 3.044 4.803 5.437 2.968 3.323-2.548 2.194-5.699-1.13-6.635-.775-.218-2.213-.324-3.613 1.238M10.95 6.22c1.45 0 4.171 1.158 4.171 1.158m5.427 7.51c.188.095.821.17.821.17m-11.683-.87.053.088m-1.757 7.518c.091.183.401.48.401.48m3.781 4.927s.225.281.68.157m6.13-3.569c.254-.127.52-.394.52-.394M15.544 7.707c.646-.4-1.075-1.903-1.468-2.26-1.816-1.65-3.88-1.687-6.218-1.853-.14-.01-1.74-.325-1.776-.27-.316.473.858 2.946 1.158 3.36 1.677 2.305 6.041 2.422 8.304 1.023Zm.714.077c-.94-1.69 1.636-4.325 2.993-5.079.178-.099 1.226-.797 1.43-.695.123.062.053 1.701.038 1.854-.168 1.672-1.396 2.773-2.742 3.63-.397.253-1.476.727-1.719.29ZM12.846 22.21s-1.34.075-2.73 1.377c-1.183 1.108-1.025 3.277-.094 4.415 1.441 1.761 4.97 1.328 5.64-.304.467-1.138.578-2.088-.073-3.435-1.134-2.344-2.73-2.045-2.73-2.045l-.013-.008Zm-2.7-11.319c-1.082.33-1.754 1.106-2.006 1.698-.64 1.502-.168 3.504 1.611 4.097 1.863.62 4.635-1.159 3.747-3.862-.189-.574-1.255-2.036-2.375-2.022a6.42 6.42 0 0 0-.978.09Z" stroke="currentcolor" stroke-width="1.5" stroke-miterlimit="10" stroke-linecap="round" stroke-linejoin="round"/>
    </symbol>
    <symbol id="apricot" viewBox="0 0 32 32">
      <path d="M16.256 9.759c-2.269-.808-5.967 1.052-7.505 3.202-1.274 1.78-1.611 3.989-1.74 6.215-.233 4.028 3.259 8.517 7.384 8.654 4.907.162 9.599-5.013 8.917-9.814-.311-2.191-1.485-4.892-3.011-6.466-1.037-1.07-2.499-1.672-4.038-1.917m.23.155c-1.74.55-4.231 3.576-4.491 5.212m-.481 6.6c-.346 2.183 1.229 5.728 4.653 6.002m.07-2.582c3.889-1.95 3.908-4.25 3.908-4.25m-.676-6.205c.757.743.837 1.96.837 1.96m-4.47-7.021c.279-2.397-.424-3.611-.566-4.78-.03-.246 1.533-1.554 2.563-.54.794.782.341 3.292-.287 5.357m1.521.023c.071-.45 6.207-2.001 6.207-2.001m-3.384 1.083c.487.077 1.717.847 1.717.847m-4.165-1.521c.259-.362 3.286-5.19 3.817-4.964.347.147.608 1.62.699 2.024M18.51 9.67c.42-.503.563-1.295 1.122-1.713 5.095-3.81 8.52-2.874 8.983-2.486 0 0-1.18 3.47-1.341 3.779-.947 1.822-3.865 2.379-5.818 2.222-.647-.053-3.482-1.16-2.946-1.802Z" stroke="currentcolor" stroke-width="1.5" stroke-miterlimit="10" stroke-linecap="round" stroke-linejoin="round"/>
    </symbol>
    <symbol id="grape" viewBox="0 0 32 32">
      <path d="M12.977 12.038c0-2.947 6.035-3.328 6.852.49.472 2.202-.98 4.086-2.968 4.583-.833.21-3.56-.233-3.56-1.367m5.993-4.446c.711-1.615 2.818-1.612 3.383-1.574 2.484.166 4.045 1.962 3.83 4.121-.198 1.968-1.857 3.382-3.568 3.537-.97.088-3.81-.665-3.81-1.78m-9.812 2.064c-1.328 2.625.514 4.423 1.081 4.862 2.736 2.116 5.568.393 6.255-2.548.271-1.16.19-1.613-.515-2.674m.067 4.22c.09 1.504 3.734 2.657 5.815.812 1.817-1.612 1.548-4.246.882-4.875M12.27 23.385c-.496.065-2.442 3.776.78 5.524 1.196.648 3.433.656 4.571.032 3.135-1.72 1.844-4.997 1.631-5.423M14.891 7.5c0 .727.133 1.448.133 2.181m1.96.11s-.245-1.765-.245-2.56M15.452 27.1s.953.13 1.38-.72M8.378 14.587c-.24-1.093-.015-1.346-.015-1.346m15.948-.41c.314.841-.31 1.451-.31 1.451M10.94 10.551s-1.323-.249-1.584-.212c-.98.14-2.296.736-2.81 1.594-1.272 2.118-.196 4.453 1.936 5.4 1.701.756 4.731-.403 4.984-2.43.167-1.333-.158-2.402-.963-3.377-.415-.502-1.415-.922-1.415-.922l-.148-.053ZM9.328 7.054c.822.326 5.304.104 6.176.025 2.942-.267 6.724-1.755 7.262-2.472.233-.31-.016-1.484-.489-1.602-.392-.098-4.67 1.21-6.506 1.393-1.192.12-5.306.387-6.399.387-.372 0-.565 2.063-.044 2.27Z" stroke="currentcolor" stroke-width="1.5" stroke-miterlimit="10" stroke-linecap="round" stroke-linejoin="round"/>
    </symbol>
    <symbol id="fig" viewBox="0 0 32 32">
      <path d="M11.066 25.307c-.138.274-1.51.186-1.834.186-2.303 0-5.584-2.358-6.051-4.695-.632-3.16.437-6.552 2.556-8.973 1.227-1.402 2.809-2.416 3.965-3.861C10.406 7.084 11.717 4 11.787 4c.11 0 2.25 3.743 3.632 5.196 1.39 1.459 1.966 2.507 1.966 2.507M9.755 25.336c.128.257-3.2-2.891-2.713-6.208m.313-4.33c.239-1.859 1.659-3.14 1.659-3.14m3.975-1.607c.753 1.903.704 3.967.704 3.967m5.37 4.423.002.579m-2.364.318.448.427m-.89 1.854.562.299m2.24-.337-.035.627m2.644-.743-.42.549m-.18-2.575.387-.411m.4-11.898c-.007-.19-.806 1.871-.99 2.243-.563 1.123-1.724 1.928-2.86 2.496-1.805.902-3.696 1.825-5.129 3.258-.843.842-1.849 2.245-2.222 3.354-2.917 8.662 5.789 8.794 7.926 9.099 1.627.233 3.544.366 5.194.092 2.81-.469 4.776-5.017 4.236-7.719-.96-4.797-5.964-7.781-6.154-12.823Zm-.033 17.686c-.567.127-6.027.008-7.226-1.387-.508-.59-.825-2.923-.593-3.899.54-2.268.994-2.672 3.604-3.373 2.16-.581 5.688-.091 6.662 2.238.662 1.578-.521 5.991-2.447 6.421Z" stroke="currentcolor" stroke-width="1.5" stroke-miterlimit="10" stroke-linecap="round" stroke-linejoin="round"/>
    </symbol>
    <symbol id="plum" viewBox="0 0 32 32">
      <path d="M17.944 9.46c2.46 2.127 2.371 5.067 2.371 6.537m-4.018 12.347c.378-.38 3.126-1.863 3.39-5.665m-5.279-9.027s-1.67 1.62-1.739 4.21m.552 5.149s-.093.538.953 1.589m-.83-17.802c.834.278 3.01 1.475 3.34 1.694m1.012.875c-1.248.04-2.658.804-2.949.965-1.782.99-3.091 2.505-4.066 4.26-1.978 3.56-.387 12.813 4.308 13.752 3.711.742 6.558-.5 8.198-3.875 1.478-3.041 1.194-6.252.995-8.25-.2-2.006-1.025-4.954-2.919-5.901-.746-.373-1.423-.963-2.247-.963-.251 0-1.154.007-1.32.012Zm.222-.56c-1.172-2.431-4.084-4.601-6.899-4.914C9.705 3.747 8.322 3.796 7 3.796c-.04 0 2.681 5.37 5.298 5.947 1.824.402 5.907-.341 5.62-.936Zm1.55.315c1.041-2.18 2.902-3.917 3.268-4.648.32-.64-.457-1.702-2.223-1.43-1.76.27-2.002 3.318-2.086 4.674-.03.497.822 1.864 1.041 1.404Z" stroke="currentcolor" stroke-width="1.5" stroke-miterlimit="10" stroke-linecap="round" stroke-linejoin="round"/>
    </symbol>
    <symbol id="peach" viewBox="0 0 32 32">
      <path d="M14.88 11.446s1.701-.529 2.745-.529c3.073 0 5.997 1.341 7.343 4.256.697 1.51.825 5.446.224 7.049-1.478 3.941-6.387 6.447-10.462 4.225-1.646-.899-2.189-1.736-2.394-3.437m1.982 3.358s-1.856.174-2.365.174c-2.346 0-4.234-1.756-5.15-3.805-2.439-5.45.962-12.295 6.352-12.02.854.044 1.291.08 2.013.44m2.093-1.038s1.067-1.661 2.556-2.742m-5.04 4.268c-2.058 1.562-2.504 3.611-2.272 5.703m8.546-2.633s1.772.828 1.724 3.879M19.998 24.1c1.067-.347 2.075-1.462 2.075-1.462m-6.45-11.82s-1.064.311-1.382-.219c-.65-1.085-3.23-4.761-2.6-5.729.19-.29 2.285-.81 2.285-.81l1.697 6.758Zm.195-.237c.454-.631 1.108-4.234 3.106-5.306C20.922 4.202 24.044 4 24.044 4s.051 2.469-2.29 4.632c-1.794 1.658-4.815 2.071-4.815 2.071s-1.18-.039-1.12-.122Z" stroke="currentcolor" stroke-width="1.5" stroke-miterlimit="10" stroke-linecap="round" stroke-linejoin="round"/>
    </symbol>
    <symbol id="breakfast" viewBox="0 0 32 32">
      <path d="M5.436 14.267c-.312-.149 15.669-.447 19.709.055m-19.758 0c.009.474-1.016 3.028 1.74 8.263.884 1.681 2.203 2.626 3.7 3.125 1.755.583 8.338.216 8.849.026 2.11-.784 2.654-1.535 3.352-2.462 2.25-2.988 2.189-5.74 2.13-8.933m.224 2.94c2.867-1.837 3.848.185 3.622 1.588-.412 2.571-3.55 2.716-5.448 3.76M7.54 16.891s-.26.878 1.166 3.474m1.583 2.166c.947 1.499 3.776 1.174 3.776 1.174m.232-18.005c-1.518.027-2.89 2.068-2.02 3.38.749 1.133 2.516.464 2.548 2.234M16.9 10.03c-1.869-2.4.569-2.654.702-4.701.061-.934-.608-2.35-1.73-2.33M9.136 25.01c.157-.003-7.004.294-4.667 1.985.955.69 7.577 1.407 11.771 1.275 3.525-.11 8.303-.02 9.65-.97 1.11-.782-1.298-2.133-4.736-2.07" stroke="currentcolor" stroke-width="1.5" stroke-miterlimit="10" stroke-linecap="round" stroke-linejoin="round"/>
    </symbol>
    <symbol id="dessert" viewBox="0 0 32 32">
      <path d="M17.282 7.482c-1.573.453-4.64 1.85-6.043 2.813-.245.168-3.768 2.273-3.752 3.155.022 1.24 6.836.982 7.424.984 4.272.016 6.565-.248 10.792-.65.842-.08 2.874-.088 3.13-.966.44-1.512-1.884-3.752-2.44-4.172m2.52 4.015.197 10.131M7.456 13.395l-.155 3.431m7.159 6.597s11.285.816 14.635-.584m-19.014-5.392c.53.021 16.067.743 18.31.295M12.75 20.14c2.171.183 13.376.334 16.26-.068m-23.563 1.33c-.473-.159-2.932-.111-2.362-1.798.246-.727 1.066-.581 1.545-1.215.533-.704-.565-2.241.58-2.64 1.14-.398 1.03 1.141 1.998 1.145.573.002 1.24-1.385 2.017-.396.777.988.256 1.693-.305 2.665m-2.37 5.67.5.333m1.914-1.681.377.447m2.197-1.367.17.636m-1.087 3.387.498.381m9.465-21.375c.283-1.267.438-2.44 1.72-2.585 1.008-.113 1.269.814 1.496 1.335.343.783.863.19 1.623.534 1.2.543 1.619 1.738 1.112 3.005-.39.97-1.901.885-3.358 1.02-1.728.161-3.925.292-4.742-.325-.928-.702-1.548-2.287-.042-3.033.796-.395 2.026.787 2.191.049ZM4.094 24.245c-.025-1.097 1.383-2.469 1.951-2.92 1.987-1.575 2.788-2.481 4.879-2.357.72.043 1.304.525 1.902 1.769 1.216 2.532 1.638 3.97 1.327 6.593-.402 3.386-5.816 1.792-7.956.173-1.91-1.445-2.081-2.292-2.103-3.258Z" stroke="currentcolor" stroke-width="1.5" stroke-miterlimit="10" stroke-linecap="round" stroke-linejoin="round"/>
    </symbol>
    <symbol id="soup" viewBox="0 0 32 32">
      <path d="m2.88 14.6 24.908-.187m-24.963.192s-1.698 6.81 2.67 10.358c3.468 2.816 16.046 3.214 19.6-.3 3.28-3.242 2.703-10.202 2.703-10.202m-17.04 12.365s-.134 1.993.186 2.183c.562.334 9.345.244 9.726-.07.045-.038-.039-1.965-.039-1.965m.156-12.69c.323-.056 2.729-4.258 3.617-5.428.936-1.232 1.794-2.254 3.12-2.969 1.327-.715 2.544.666 1.898 1.883-.492.927-.983.959-2.318 1.921-1.1.794-2.643 2.86-3.684 4.354M5.13 17.702c-.148 2.765 1.153 5.398 3.784 6.15M14.354 5.7c-1.519.027-2.89 2.068-2.021 3.38.75 1.133 2.516.464 2.548 2.234m2.076-1.284c-1.87-2.4.568-2.654.702-4.701.06-.934-.609-2.35-1.731-2.33" stroke="currentcolor" stroke-width="1.5" stroke-miterlimit="10" stroke-linecap="round" stroke-linejoin="round"/>
    </symbol>
    <symbol id="pasta" viewBox="0 0 32 32">
      <path d="M3.02 22.061c2.015-.145 25.073-.175 25.073-.175M3 22.126c0-.122-.065 3.503 2.335 5.17 1.332.923 19.198.833 20.664-.082 1.924-1.201 2.105-5.284 2.105-5.284M5.62 23.973s.306 1.4 2.262 1.745m-3.893-4.157c.346-1.887 2.755-5.648 5.642-6.693 3.952-1.43 7.081-.41 7.396-.253.104.052.053.19-.025.24-.765.488-1.484 1.006-2.14 1.701-1.262 1.335-1.988 2.982-2.377 4.747m-3.375.153c1.613-3.122 2.828-5.74 5.553-7.37m-8.08 7.63c.433-1.969 3.547-7.2 4.201-7.268m2.546 4.858c1.658.64 2.562 2.377 2.562 2.377m-1.44-4.168c1.71.68 3.981 2.666 4.486 3.97m-3.372-5.495c2.931.978 5.818 2.565 7.522 5.636m-6.015-6.711c6.68 1.412 9.436 6.28 9.45 6.56M9.958 14.52c.25-.397.287-.886.613-1.271 2.872-3.395 8.128-4.567 11.076-.524.851 1.167 1.32 3.224 1.11 4.621m-8.462-3.344c.136-1.407 1.895-3.51 3.134-3.793m.163 4.074a8.134 8.134 0 0 1 2.692-2.656m.532 3.89c.296-.472.72-1.115 1.298-1.248m-.717-2.28c3.068-2.44 7.025-1.067 7.025-1.067s-.332 4.024-5.486 5.106m1.611-2.772-1.716.593m-5.687-4.12C17.128 6.23 21.44 4 21.44 4s.761 2.463.931 3.072c.536 1.928-.288 3.553-1.2 4.57m-1.876-1.05.952-1.783" stroke="currentcolor" stroke-width="1.5" stroke-miterlimit="10" stroke-linecap="round" stroke-linejoin="round"/>
    </symbol>
    <symbol id="bread" viewBox="0 0 32 32">
      <path d="M22.13 17.705c-3.134.016-6.749.355-8.427.333m-8.818-.005c-1.549.169-2.83.192-2.883-1.8-.047-1.777.611-2.963 1.568-4.384 3.634-5.397 8.584-6.577 14.903-5.472 3.71.648 7.621 2.593 10.02 5.551.778.961 1.11 1.61.788 3.473-.249 1.442-1.925 1.612-2.504 1.74M9.15 18.143c1.04.862 2.21 1.828 2.465 3.604m-2.873-1.5c.168-.203 2.32-.884 3.598-.587m7.482 1.584c-.983-.263-2.312.86-2.254 1.824.111 1.837 1.265 4.094 3.372 3.662.445-.091 1.083-.223 1.41-.591m-7.072-3.967c.365.323 1.768.41 2.232.534m-2.983 1.705s1.888 1.316 3.773 1.465m3.923-6.822c-.35-4.275 2.28-2.951 3.115-2.795 1.542.288 2.014 4.475 2.014 4.475m-4.629-4.6s-1.015-2.097-.452-2.523c.462-.35 1.565-.258 2.308.484.698.697 1.05 2.027 1.14 2.254M9.236 9.363c-1.076.182-2.063 1.415-2.776 2.166m-1.392 2.46a2.926 2.926 0 0 0-.65 1.085m8.894-8.747c-.608.15-1.325 3.442-1.375 4.069m4.776-3.98c-.762 1.26-1.076 2.649-1.193 4.098m4.675-3.48c-.546.904-1.665 2.591-1.392 3.698m-5.572 6.967c-.474-.268-2.183-1.65-5.41-1.168-3.08.46-5.41 3.661-3.54 6.93 1.612 2.817 6.891 4.47 9.271 2.121 1.231-1.215 2.122-3.881 1.603-5.615-.187-.627-.545-1.062-.99-1.512-.112-.114-.39-.45-.934-.756Zm8.994 1.534c-.56-.073-1.826 1.394-1.866 1.885-.135 1.646 2.25 6.036 4.336 5.33 1.802-.61 4.77-4.326 2.24-5.801-1.61-.938-1.997-1.062-4.71-1.414Z" stroke="currentcolor" stroke-width="1.5" stroke-miterlimit="10" stroke-linecap="round" stroke-linejoin="round"/>
    </symbol>
    <symbol id="sauce" viewBox="0 0 32 32">
      <path d="M16.76 13.963s.181-.8.02-1.607c-.191-.956-.611-1.164-.611-1.164M3.594 14.32c-.07 3.753.294 11.266.829 13.458.491 2.013 11.095 2.008 11.527.22.467-1.928.4-9.844.412-13.733M3.602 11.22s-.504.268-.714 1.121c-.234.955.073 1.627.073 1.627m.791-2.782s9.33-.272 12.297-.024M3.1 13.97c.16-.136 10.683-.065 13.648.007M3.814 19.296c.715-.655 1.231-.87 1.383-.929 1.035-.397 1.959-.453 3.037-.315 2.159.277 3.875 1.388 6.003.108.539-.324.96-.777 1.446-1.176m-9.749-.775s.064 4.073.119 5.28m.288 2.86s-.083 1.56 1.8 1.69M21.906 6.063s-.06 3.093-.172 3.798c-.426 2.667-1.54 2.004-2.287 4.384-1.039 3.313-1.283 5.958-1.216 9.797.014.781-.009 3.528.32 4.324m6.688-22.303s.06 3.093.173 3.798c.426 2.667 1.54 2.004 2.287 4.384 1.039 3.313 1.282 5.958 1.215 9.797-.013.781-.009 3.68-.338 4.477m-9.88-.073c3.62 1.425 6.76 1.129 9.889.141m-8.828-15.116c.602-.879 1.198-.798 1.762-.811 1.524-.037 3.402.802 4.575-.634m-6.931 3.932s6.512.53 8.805-.037m-9.383 7.59s5.42 1.11 10.244-.13m-8.189-5.174c-.174.778-.198 3.174-.198 3.174m.027 4.577s.037 1.574 2.079 1.14m.158-23.095-.019.085m-2.033 1.502c.334.348 5.68.178 5.82.064.328-.265-.164-2.876-.448-3.15-.541-.52-4.29-.29-4.968.065-.307.161-.66 2.752-.404 3.02Z" stroke="currentcolor" stroke-width="1.5" stroke-miterlimit="10" stroke-linecap="round" stroke-linejoin="round"/>
    </symbol>
    <symbol id="snack" viewBox="0 0 32 32">
      <path d="M10.38 12.577s.187-.82.94-.947m8.284 1.456c.393.143 1.009 1.024 1.327 1.308m.042-1.167c-.42.05-1.41.73-1.533 1.07m-5.237 6.194c.805.49 1.598-.006 1.598-.006m-.015-4.501c.413.06 3.153.695 2.843 4.12-.133 1.473-2.193 3.437-4.39 2.977-1.902-.398-2.79-2.232-2.605-4.011.048-.463.52-3.835 4.14-3.102m-.641 5.168c-.006.031-.11-.993-.167-1.409m.076-10.66c-.716-.07-1.036-.585-1.162-.778-.464-.709-2.528-1.38-3.991-1.112-1.463.268-3.445 2.92-3.792 3.436-1.696 2.515 1.676 4.373 1.612 6.8-.05 1.899-1.547 3.512-.881 5.477.822 2.425 3.833 4.643 6.418 3.435 1.316-.616 2.382-1.697 3.882-1.871 2.283-.265 4.1 2.285 6.487.828 1.394-.85 2.248-3.365 1.978-4.925-.238-1.38-1.08-2.831-.93-4.266.33-3.19 3.256-4.882.334-7.962C23.2 6.235 19.68 6.18 17.809 7.7l-1.063.863s-.987.57-1.704.502ZM14 10.384c-3.74-3.25-8.117 2.46-4.165 4.857 1.797 1.09 5.282.403 4.86-3.28-.066-.574-.2-1.146-.695-1.577Zm9.046 1.097c-2.296-3.556-8.382-.05-5.601 3.726 1.617 2.196 4.39 1.873 5.683.175.41-.537.658-1.32.553-2.38-.055-.56-.448-1.231-.635-1.521Zm-7.29-8.28S12.15 3.071 7.6 4.722c-2.418.88-4.888 3.248-4.799 5.723.09 2.476 2.07 2.088 2.157 6.835.064 3.572-.463 8.898 2.812 10.886 1.528.928 16.423.55 17.925-.543 2.817-2.048 1.46-12.178 1.777-13.543.496-2.133 1.832-2.625 1.86-4.658.032-2.22-2.898-4.16-6.593-5.163-3.771-1.025-6.186-1.02-6.186-1.02l-.8-.037Z" stroke="currentcolor" stroke-width="1.5" stroke-miterlimit="10" stroke-linecap="round" stroke-linejoin="round"/>
    </symbol>
    <symbol id="side dish" viewBox="0 0 32 32">
      <path d="M16.186 19.413c1.148-.414 10.988-.241 14.15.133m-14.301-.061c-.456.359 1.274 5.913 2.344 6.704 1.059.783 8.296.708 9.266.123.523-.316 2.744-5.168 2.706-6.747m-13.203-.292c-1.291-.546-.52-3.468.941-3.338.175.015-.223-1.335 1.003-2.28 1.226-.945 2.412.29 2.617.166.809-.488 1.383-1.31 2.54-1.082.606.12.886.85 1.408.98.75.185 1.508-.22 1.834.686.161.446-.285.928-.153 1.293.077.214.996.296 1.244.48.867.641 1.092 1.903.955 2.896m-9.468-2.138c-.024-.985 1.513-1.022 1.81-.2m2.513-.676c.474-.11 1.306-.022 1.276.858m-1.344-4.556c.47-1.406 1.953-5.066 2.232-5.439.323-.43 1.844.1 1.788.641-.077.745-2.514 4.67-2.976 6.057m-3.523-.269c-.317-.88-.577-7.048-.483-7.164.207-.254 1.75-.5 1.91-.2.23.433.22 6.347.067 6.674m-21.016 3c.068 2.832 2.921 8.832 5.075 10.59m.001-.02s5.472.387 10.72-.123M2.329 15.566c.114-.241 3.723-.546 4.245-.53 2.72.08 11.748-.361 11.748-.361m-14.881.478c-1.49-1.215-1.715-6.048-1.172-7.638.207-.607.468-1.562 1.163-1.729 1.885-.451 1.627 3.227 2.689 3.96.85.587 1.66-1.074 2.601-.842.757.187.52 1.327 1.048 1.718.37.273 1.081-.14 1.544-.009 1.778.5 2.206 2.355 2.728 3.804m-8.428-2.178c-.082-.105.857 2.292 3.719 2.589m-.165-2.108.272 1.878m1.517-4.713c.35-2.953 1.103-2.074 3.406-3.296.998-.53 2.476-2.28 3.513-1.292.8.763 1.17 2.059 1.518 3.024.224.623.571 3.439.473 4.73m-4.894 1.697c-.157-.199.953-3.761 1.192-4.269M5.417 17.557c.384 1.608 1.465 3.737 2.67 4.905m10.603-1.161c-.09.756.66 2.525 1.233 3.013" stroke="currentcolor" stroke-width="1.5" stroke-miterlimit="10" stroke-linecap="round" stroke-linejoin="round"/>
    </symbol>
    <symbol id="main dish" viewBox="0 0 32 32">
      <path d="M3.35 19.5c2.016-.145 25.074-.175 25.074-.175m-25.094.24c0-.121-.064 3.503 2.336 5.17 1.33.924 19.197.834 20.664-.082 1.924-1.2 2.105-5.284 2.105-5.284M5.95 21.413s.306 1.4 2.262 1.744m2.118-3.933c1.467-2.934 3.463-4.97 6.336-6.693.818-.491 2.999-.245 3.293-.466.462-.346 2.68-2.702 2.792-3.15.295-1.18-.45-3.489 1.432-3.865 1.694-.339 2.656 1.101 2.398 2.649-.067.398-.782.994-.716 1.324.052.26.583.369.75.537.42.42.28 1.042.18 1.54-.198.992-1.81.15-2.326.357-.088.035-2.031 2.386-2.04 2.434-.064.317.709.792.787 1.181.277 1.384.16 2.793-.465 4.045m.823-3.687c0-.245 1.18-1.969 2.899-1.038.53.287 1.89-1.5 2.506-1.038.98.736.449 5.234-.68 5.799m-4.045 0 1.969-1.969M4.078 19.47C3.086 19.487 3 18.71 3 18.023c-.002-.918 1.33-1.17 1.61-1.592.169-.252-.493-1.604.067-2.164.85-.854 1.752.042 1.824.018.065-.022-.017-.997.75-1.36 1.028-.486 2.113-.11 2.258 1.121m-.54-1.121c.773-1.684 2.426-.305 2.426-.305s.486-.843 1.224-.897c1.375-.102 2.018 1.62 1.58 2.495m-7.134 2.8c-.396-1.055 1.463-1.803 1.868-.641" stroke="currentcolor" stroke-width="1.5" stroke-miterlimit="10" stroke-linecap="round" stroke-linejoin="round"/>
    </symbol>
    <symbol id="all" viewBox="0 0 32 32">
      <path d="m21.244 26-5.25-2.737-5.256 2.728 1.008-5.787L7.5 16.102l5.874-.839L16.006 10l2.62 5.268 5.874.85-4.253 4.094.997 5.788Z" stroke="currentcolor" stroke-width="1.5" stroke-miterlimit="10" stroke-linecap="round" stroke-linejoin="round"/>
    </symbol>
  </defs>
</svg>