<svg viewBox="0 0 168 168" fill="none" xmlns="http://www.w3.org/2000/svg">
<path d="M54.9118 72.2734H113.088V114.941C113.088 116.809 111.574 118.324 109.706 118.324H58.2941C56.4261 118.324 54.9118 116.809 54.9118 114.941V72.2734Z" stroke="#292524" stroke-width="4.05882" stroke-linejoin="round"/>
<ellipse cx="72.7976" cy="88.9199" rx="4.97882" ry="6.2253" fill="#292524"/>
<ellipse cx="95.2024" cy="88.9199" rx="4.97882" ry="6.2253" fill="#292524"/>
<ellipse cx="70.3082" cy="102.408" rx="3.11265" ry="7.46824" transform="rotate(90 70.3082 102.408)" fill="#FACC15"/>
<ellipse cx="97.6918" cy="102.408" rx="3.11265" ry="7.46824" transform="rotate(90 97.6918 102.408)" fill="#FACC15"/>
<path d="M70.805 54.0962C61.7288 55.7896 54.8 59.3683 54.8 64.8322H113C113 59.2974 105.89 55.6971 96.6408 54.0313M70.805 54.0962C78.8398 52.5971 88.5574 52.5755 96.6408 54.0313M70.805 54.0962C70.805 45.0375 96.6408 45.0375 96.6408 54.0313" stroke="#292524" stroke-width="4.05882" stroke-linejoin="round"/>
<path d="M59.3049 30.2435C57.7896 30.2435 56.4366 29.9639 55.246 29.4047C54.0554 28.8275 53.1264 28.0337 52.459 27.0235C51.8096 25.9953 51.4849 24.8318 51.4849 23.5329V17.4718C51.4849 16.1729 51.8096 15.0184 52.459 14.0082C53.1264 12.998 54.0464 12.2133 55.219 11.6541C56.3915 11.0949 57.7354 10.8153 59.2507 10.8153C60.766 10.8153 62.11 11.0588 63.2825 11.5459C64.4551 12.0149 65.366 12.6733 66.0154 13.5212C66.6829 14.369 67.0166 15.3431 67.0166 16.4435C67.0166 16.9847 66.8362 17.4086 66.4754 17.7153C66.1147 18.022 65.6366 18.1753 65.0413 18.1753C64.9151 18.1753 64.7256 18.1573 64.4731 18.1212C64.5092 17.9047 64.5272 17.562 64.5272 17.0929C64.5272 16.3173 64.3017 15.6227 63.8507 15.0094C63.4178 14.3961 62.7954 13.918 61.9837 13.5753C61.19 13.2325 60.279 13.0612 59.2507 13.0612C58.2405 13.0612 57.3386 13.2506 56.5449 13.6294C55.7511 13.9902 55.1288 14.5133 54.6778 15.1988C54.2449 15.8663 54.0284 16.6239 54.0284 17.4718V23.5329C54.0284 24.3988 54.2449 25.1745 54.6778 25.86C55.1288 26.5275 55.7511 27.0506 56.5449 27.4294C57.3566 27.8082 58.2766 27.9976 59.3049 27.9976C60.3511 27.9976 61.2802 27.8263 62.0919 27.4835C62.9037 27.1408 63.5351 26.6718 63.986 26.0765C64.437 25.4631 64.6625 24.7596 64.6625 23.9659C64.6625 23.6773 64.6445 23.3345 64.6084 22.9376C64.8609 22.9016 65.0413 22.8835 65.1496 22.8835C65.7449 22.8835 66.2229 23.0549 66.5837 23.3976C66.9625 23.7404 67.1519 24.2004 67.1519 24.7776C67.1519 25.842 66.8182 26.789 66.1507 27.6188C65.4833 28.4486 64.5543 29.098 63.3637 29.5671C62.1911 30.018 60.8382 30.2435 59.3049 30.2435ZM77.3692 30.2435C75.8719 30.2435 74.528 29.9549 73.3374 29.3776C72.1648 28.7824 71.2448 27.9706 70.5774 26.9424C69.9099 25.8961 69.5762 24.7416 69.5762 23.4788V17.5259C69.5762 16.2631 69.9099 15.1267 70.5774 14.1165C71.2448 13.0882 72.1648 12.2855 73.3374 11.7082C74.528 11.1129 75.8719 10.8153 77.3692 10.8153C78.8845 10.8153 80.2284 11.1129 81.4009 11.7082C82.5915 12.2855 83.5205 13.0882 84.188 14.1165C84.8554 15.1267 85.1892 16.2631 85.1892 17.5259V23.4788C85.1892 24.7416 84.8554 25.8961 84.188 26.9424C83.5205 27.9706 82.5915 28.7824 81.4009 29.3776C80.2103 29.9549 78.8664 30.2435 77.3692 30.2435ZM77.3692 28.0247C79.0468 28.0247 80.3547 27.6098 81.2927 26.78C82.2307 25.9502 82.6998 24.8408 82.6998 23.4518V17.58C82.6998 16.191 82.2307 15.0906 81.2927 14.2788C80.3547 13.449 79.0468 13.0341 77.3692 13.0341C75.7096 13.0341 74.4107 13.449 73.4727 14.2788C72.5347 15.0906 72.0656 16.191 72.0656 17.58V23.4518C72.0656 24.8408 72.5347 25.9502 73.4727 26.78C74.4107 27.6098 75.7096 28.0247 77.3692 28.0247ZM95.4172 30.2435C93.9199 30.2435 92.576 29.9549 91.3854 29.3776C90.2129 28.7824 89.2929 27.9706 88.6254 26.9424C87.958 25.8961 87.6242 24.7416 87.6242 23.4788V17.5259C87.6242 16.2631 87.958 15.1267 88.6254 14.1165C89.2929 13.0882 90.2129 12.2855 91.3854 11.7082C92.576 11.1129 93.9199 10.8153 95.4172 10.8153C96.9325 10.8153 98.2764 11.1129 99.449 11.7082C100.64 12.2855 101.569 13.0882 102.236 14.1165C102.903 15.1267 103.237 16.2631 103.237 17.5259V23.4788C103.237 24.7416 102.903 25.8961 102.236 26.9424C101.569 27.9706 100.64 28.7824 99.449 29.3776C98.2584 29.9549 96.9144 30.2435 95.4172 30.2435ZM95.4172 28.0247C97.0948 28.0247 98.4027 27.6098 99.3407 26.78C100.279 25.9502 100.748 24.8408 100.748 23.4518V17.58C100.748 16.191 100.279 15.0906 99.3407 14.2788C98.4027 13.449 97.0948 13.0341 95.4172 13.0341C93.7576 13.0341 92.4588 13.449 91.5207 14.2788C90.5827 15.0906 90.1137 16.191 90.1137 17.58V23.4518C90.1137 24.8408 90.5827 25.9502 91.5207 26.78C92.4588 27.6098 93.7576 28.0247 95.4172 28.0247ZM106.349 12.9259C106.349 12.2584 106.574 11.7443 107.025 11.3835C107.476 11.0047 108.099 10.8153 108.892 10.8153V20.0965L118.769 10.8153C119.075 11.0678 119.328 11.3384 119.526 11.6271C119.725 11.8976 119.824 12.1412 119.824 12.3576C119.824 12.8086 119.553 13.2867 119.012 13.7918L112.681 19.7447L120.852 29.54C120.654 29.7565 120.419 29.9278 120.149 30.0541C119.896 30.1804 119.644 30.2435 119.391 30.2435C118.688 30.2435 118.119 29.991 117.686 29.4859L110.841 21.3682L108.892 23.1812V28.2141C108.892 28.8996 108.685 29.4137 108.27 29.7565C107.855 30.0812 107.215 30.2435 106.349 30.2435V12.9259Z" fill="#292524"/>
<path d="M53.4008 156.471C53.04 156.471 52.7333 156.353 52.4808 156.119C52.2282 155.884 52.102 155.605 52.102 155.28V138.72C52.102 138.377 52.2282 138.098 52.4808 137.881C52.7333 137.647 53.04 137.529 53.4008 137.529H60.9231C62.4925 137.529 63.7373 137.998 64.6573 138.936C65.5953 139.875 66.0643 141.137 66.0643 142.725C66.0643 143.573 65.8388 144.366 65.3878 145.106C64.9369 145.845 64.3506 146.396 63.629 146.756V146.811C64.6573 147.117 65.451 147.649 66.0102 148.407C66.5694 149.147 66.849 150.049 66.849 151.113C66.849 152.159 66.6235 153.088 66.1725 153.9C65.7396 154.712 65.1263 155.343 64.3325 155.794C63.5388 156.245 62.6278 156.471 61.5996 156.471H53.4008ZM60.869 145.891C61.6086 145.891 62.24 145.593 62.7631 144.998C63.3043 144.384 63.5749 143.645 63.5749 142.779C63.5749 141.823 63.3314 141.074 62.8443 140.533C62.3753 139.992 61.7169 139.721 60.869 139.721H54.6184V145.891H60.869ZM61.4102 154.279C62.3302 154.279 63.0518 154.008 63.5749 153.467C64.098 152.908 64.3596 152.132 64.3596 151.14C64.3596 150.184 64.098 149.435 63.5749 148.894C63.0698 148.353 62.3482 148.082 61.4102 148.082H54.6184V154.279H61.4102ZM77.0815 156.714C75.5842 156.714 74.2403 156.425 73.0497 155.848C71.8772 155.253 70.9572 154.441 70.2897 153.413C69.6223 152.367 69.2885 151.212 69.2885 149.949V143.996C69.2885 142.734 69.6223 141.597 70.2897 140.587C70.9572 139.559 71.8772 138.756 73.0497 138.179C74.2403 137.584 75.5842 137.286 77.0815 137.286C78.5968 137.286 79.9407 137.584 81.1132 138.179C82.3038 138.756 83.2329 139.559 83.9003 140.587C84.5678 141.597 84.9015 142.734 84.9015 143.996V149.949C84.9015 151.212 84.5678 152.367 83.9003 153.413C83.2329 154.441 82.3038 155.253 81.1132 155.848C79.9227 156.425 78.5787 156.714 77.0815 156.714ZM77.0815 154.495C78.7591 154.495 80.067 154.08 81.005 153.251C81.943 152.421 82.4121 151.311 82.4121 149.922V144.051C82.4121 142.662 81.943 141.561 81.005 140.749C80.067 139.92 78.7591 139.505 77.0815 139.505C75.4219 139.505 74.123 139.92 73.185 140.749C72.247 141.561 71.7779 142.662 71.7779 144.051V149.922C71.7779 151.311 72.247 152.421 73.185 153.251C74.123 154.08 75.4219 154.495 77.0815 154.495ZM95.1295 156.714C93.6322 156.714 92.2883 156.425 91.0977 155.848C89.9252 155.253 89.0052 154.441 88.3377 153.413C87.6703 152.367 87.3366 151.212 87.3366 149.949V143.996C87.3366 142.734 87.6703 141.597 88.3377 140.587C89.0052 139.559 89.9252 138.756 91.0977 138.179C92.2883 137.584 93.6322 137.286 95.1295 137.286C96.6448 137.286 97.9887 137.584 99.1613 138.179C100.352 138.756 101.281 139.559 101.948 140.587C102.616 141.597 102.95 142.734 102.95 143.996V149.949C102.95 151.212 102.616 152.367 101.948 153.413C101.281 154.441 100.352 155.253 99.1613 155.848C97.9707 156.425 96.6268 156.714 95.1295 156.714ZM95.1295 154.495C96.8071 154.495 98.115 154.08 99.053 153.251C99.9911 152.421 100.46 151.311 100.46 149.922V144.051C100.46 142.662 99.9911 141.561 99.053 140.749C98.115 139.92 96.8071 139.505 95.1295 139.505C93.4699 139.505 92.1711 139.92 91.233 140.749C90.295 141.561 89.826 142.662 89.826 144.051V149.922C89.826 151.311 90.295 152.421 91.233 153.251C92.1711 154.08 93.4699 154.495 95.1295 154.495ZM106.061 139.396C106.061 138.729 106.287 138.215 106.738 137.854C107.189 137.475 107.811 137.286 108.605 137.286V146.567L118.481 137.286C118.788 137.538 119.04 137.809 119.239 138.098C119.437 138.368 119.536 138.612 119.536 138.828C119.536 139.279 119.266 139.757 118.725 140.262L112.393 146.215L120.565 156.011C120.366 156.227 120.132 156.398 119.861 156.525C119.609 156.651 119.356 156.714 119.103 156.714C118.4 156.714 117.832 156.462 117.399 155.956L110.553 147.839L108.605 149.652V154.685C108.605 155.37 108.397 155.884 107.982 156.227C107.567 156.552 106.927 156.714 106.061 156.714V139.396Z" fill="#292524"/>
<path d="M42.0588 20.2354H23.1176C18.6344 20.2354 15 23.8697 15 28.353V139.294C15 143.777 18.6344 147.412 23.1176 147.412H42.0588M125.941 20.2354H144.882C149.366 20.2354 153 23.8697 153 28.353V139.294C153 143.777 149.366 147.412 144.882 147.412H125.941" stroke="#FACC15" stroke-width="4.05882" stroke-linecap="round" stroke-linejoin="round"/>
</svg>
