<svg xmlns="http://www.w3.org/2000/svg" fill="none" viewBox="0 0 144 163"><path stroke="#292524" stroke-linecap="round" stroke-linejoin="round" stroke-miterlimit="10" stroke-width="3.2" d="M40.8048 71.6038c6.3417-1.1088 57.8618 1.2119 62.8982 1.6538m-62.9466-1.3658c-1.1197.4197-4.6387 43.6822 3.2307 46.0532 12.1193 3.652 47.1298 4.151 54.8105.839 3.9854-1.72 5.1084-13.452 5.2844-25.1474.114-7.6833-.182-15.3501-.341-20.1514M61.7246 52.7572c.0313.1238-.114-7.253 1.225-7.4016 11.5239-1.281 24.3356 1.2201 24.8256 2.4255.6923 1.6978.3134 5.1318-.2422 6.8931M43.4715 63.215c15.2873 1.033 53.1012 4.3616 58.3265 3.8416 5.213-.5188-3.0487-6.8307-7.3193-9.0058-11.7831-6.0032-32.1901-6.6113-41.9533-2.9721-5.413 2.017-14.0737 7.7973-9.0539 8.1363Z"/><path fill="#292524" stroke="#292524" stroke-linejoin="round" stroke-miterlimit="10" stroke-width="3.2" d="M61.6133 86.7564c-2.7207-1.5211-4.903 6.9745-1.7862 7.4257 2.7606.4003 2.8147-.686 3.2791-3.4398.4644-2.7409-.4388-3.3962-1.4929-3.9859Zm20.7602 1.7632c-.5043 1.2578-.8661 5.762 1.698 5.7343 1.0769-.0114 1.8233.0886 2.3674-1.7606.5413-1.849.094-2.9384-.1852-3.6711-1.433-3.725-3.3759-1.5658-3.8802-.3026Z"/><path fill="#FACC15" stroke="#FACC15" stroke-linejoin="round" stroke-miterlimit="10" stroke-width="3.2" d="M62.1176 103.332c-2.0313-1.384-10.7376-1.66-7.6864 1.838.8945 1.027 10.5011 1.395 7.5325-1.969l.1539.131Zm18.2759.435c-.0542.883 1.4814 2.306 4.544 2.33 4.8118.038 5.0512-2.081 5.2364-2.495.6267-1.41-3.3219-1.688-5.5868-1.545-2.2848.143-4.1082.33-4.1936 1.71Z"/><path fill="#292524" d="M47.3049 28.2435c-1.5153 0-2.8683-.2796-4.0589-.8388-1.1905-.5772-2.1196-1.371-2.787-2.3812-.6494-1.0282-.9741-2.1917-.9741-3.4906v-6.0611c0-1.2989.3247-2.4534.9741-3.4636.6674-1.0102 1.5874-1.7949 2.76-2.35408 1.1725-.55922 2.5165-.83883 4.0317-.83883 1.5153 0 2.8593.24353 4.0318.73059 1.1726.46902 2.0835 1.12742 2.733 1.97532.6674.8478 1.0011 1.8219 1.0011 2.9223 0 .5412-.1804.9651-.5411 1.2718-.3608.3067-.8389.46-1.4342.46-.1262 0-.3157-.018-.5682-.0541.0361-.2165.0541-.5592.0541-1.0283 0-.7756-.2255-1.4702-.6765-2.0835-.4329-.6133-1.0552-1.0914-1.867-1.4341-.7937-.3428-1.7047-.5141-2.733-.5141-1.0101 0-1.9121.1894-2.7058.5682-.7938.3608-1.4161.8839-1.8671 1.5694-.4329.6675-.6494 1.4251-.6494 2.273v6.0611c0 .8659.2165 1.6416.6494 2.3271.451.6675 1.0733 1.1906 1.8671 1.5694.8117.3788 1.7317.5682 2.76.5682 1.0462 0 1.9753-.1713 2.787-.5141.8118-.3427 1.4432-.8117 1.8941-1.407.451-.6134.6765-1.3169.6765-2.1106 0-.2886-.018-.6314-.0541-1.0283.2525-.036.4329-.0541.5412-.0541.5953 0 1.0733.1714 1.4341.5141.3788.3428.5682.8028.5682 1.38 0 1.0644-.3337 2.0114-1.0012 2.8412-.6674.8298-1.5964 1.4792-2.787 1.9483-1.1726.4509-2.5255.6764-4.0588.6764Zm18.0643 0c-1.4973 0-2.8412-.2886-4.0318-.8659-1.1725-.5952-2.0925-1.407-2.76-2.4352-.6674-1.0463-1.0012-2.2008-1.0012-3.4636v-5.9529c0-1.2628.3338-2.3992 1.0012-3.4094.6675-1.0283 1.5875-1.831 2.76-2.40827 1.1906-.59529 2.5345-.89294 4.0318-.89294 1.5153 0 2.8592.29765 4.0317.89294 1.1906.57727 2.1196 1.37997 2.7871 2.40827.6674 1.0102 1.0012 2.1466 1.0012 3.4094v5.9529c0 1.2628-.3338 2.4173-1.0012 3.4636-.6675 1.0282-1.5965 1.84-2.7871 2.4352-1.1906.5773-2.5345.8659-4.0317.8659Zm0-2.2188c1.6776 0 2.9855-.4149 3.9235-1.2447.938-.8298 1.4071-1.9392 1.4071-3.3282V15.58c0-1.389-.4691-2.4894-1.4071-3.3012-.938-.8298-2.2459-1.2447-3.9235-1.2447-1.6596 0-2.9585.4149-3.8965 1.2447-.938.8118-1.4071 1.9122-1.4071 3.3012v5.8718c0 1.389.4691 2.4984 1.4071 3.3282.938.8298 2.2369 1.2447 3.8965 1.2447Zm18.048 2.2188c-1.4973 0-2.8412-.2886-4.0318-.8659-1.1725-.5952-2.0925-1.407-2.76-2.4352-.6674-1.0463-1.0012-2.2008-1.0012-3.4636v-5.9529c0-1.2628.3338-2.3992 1.0012-3.4094.6675-1.0283 1.5875-1.831 2.76-2.40827 1.1906-.59529 2.5345-.89294 4.0318-.89294 1.5153 0 2.8592.29765 4.0318.89294 1.1905.57727 2.1196 1.37997 2.787 2.40827.6675 1.0102 1.0012 2.1466 1.0012 3.4094v5.9529c0 1.2628-.3337 2.4173-1.0012 3.4636-.6674 1.0282-1.5965 1.84-2.787 2.4352-1.1906.5773-2.5346.8659-4.0318.8659Zm0-2.2188c1.6776 0 2.9855-.4149 3.9235-1.2447.9381-.8298 1.4071-1.9392 1.4071-3.3282V15.58c0-1.389-.469-2.4894-1.4071-3.3012-.938-.8298-2.2459-1.2447-3.9235-1.2447-1.6596 0-2.9584.4149-3.8965 1.2447-.938.8118-1.407 1.9122-1.407 3.3012v5.8718c0 1.389.469 2.4984 1.407 3.3282.9381.8298 2.2369 1.2447 3.8965 1.2447Zm10.9315-15.0988c0-.6675.2255-1.18159.6765-1.54237.451-.37882 1.0733-.56824 1.8671-.56824v9.28121l9.8767-9.28121c.306.25255.559.52314.757.81177.199.27059.298.51414.298.73054 0 .451-.271.9291-.812 1.4342l-6.331 5.9529 8.171 9.7953c-.198.2165-.433.3878-.703.5141-.253.1263-.505.1894-.758.1894-.703 0-1.272-.2525-1.705-.7576l-6.8455-8.1177-1.9482 1.813v5.0329c0 .6855-.2075 1.1996-.6224 1.5424-.4149.3247-1.0553.487-1.9212.487V10.9259ZM41.4008 155.471c-.3608 0-.6675-.118-.92-.352-.2526-.235-.3788-.514-.3788-.839v-16.56c0-.343.1262-.622.3788-.839.2525-.234.5592-.352.92-.352h7.5223c1.5694 0 2.8142.469 3.7342 1.407.938.939 1.407 2.201 1.407 3.789 0 .848-.2255 1.641-.6765 2.381-.4509.739-1.0372 1.29-1.7588 1.65v.055c1.0283.306 1.822.838 2.3812 1.596.5592.74.8388 1.642.8388 2.706 0 1.046-.2255 1.975-.6765 2.787-.4329.812-1.0462 1.443-1.84 1.894-.7937.451-1.7047.677-2.7329.677h-8.1988Zm7.4682-10.58c.7396 0 1.371-.298 1.8941-.893.5412-.614.8118-1.353.8118-2.219 0-.956-.2435-1.705-.7306-2.246-.469-.541-1.1274-.812-1.9753-.812h-6.2506v6.17h6.2506Zm.5412 8.388c.92 0 1.6416-.271 2.1647-.812.5231-.559.7847-1.335.7847-2.327 0-.956-.2616-1.705-.7847-2.246-.5051-.541-1.2267-.812-2.1647-.812h-6.7918v6.197h6.7918Zm15.6713 2.435c-1.4973 0-2.8412-.289-4.0318-.866-1.1725-.595-2.0925-1.407-2.76-2.435-.6674-1.046-1.0012-2.201-1.0012-3.464v-5.953c0-1.262.3338-2.399 1.0012-3.409.6675-1.028 1.5875-1.831 2.76-2.408 1.1906-.595 2.5345-.893 4.0318-.893 1.5153 0 2.8592.298 4.0317.893 1.1906.577 2.1197 1.38 2.7871 2.408.6675 1.01 1.0012 2.147 1.0012 3.409v5.953c0 1.263-.3337 2.418-1.0012 3.464-.6674 1.028-1.5965 1.84-2.7871 2.435-1.1905.577-2.5345.866-4.0317.866Zm0-2.219c1.6776 0 2.9855-.415 3.9235-1.244.938-.83 1.4071-1.94 1.4071-3.329v-5.871c0-1.389-.4691-2.49-1.4071-3.302-.938-.829-2.2459-1.244-3.9235-1.244-1.6596 0-2.9585.415-3.8965 1.244-.938.812-1.4071 1.913-1.4071 3.302v5.871c0 1.389.4691 2.499 1.4071 3.329.938.829 2.2369 1.244 3.8965 1.244Zm18.048 2.219c-1.4973 0-2.8412-.289-4.0318-.866-1.1725-.595-2.0925-1.407-2.76-2.435-.6674-1.046-1.0011-2.201-1.0011-3.464v-5.953c0-1.262.3337-2.399 1.0011-3.409.6675-1.028 1.5875-1.831 2.76-2.408 1.1906-.595 2.5345-.893 4.0318-.893 1.5153 0 2.8592.298 4.0318.893 1.1906.577 2.1196 1.38 2.787 2.408.6675 1.01 1.0012 2.147 1.0012 3.409v5.953c0 1.263-.3337 2.418-1.0012 3.464-.6674 1.028-1.5964 1.84-2.787 2.435-1.1906.577-2.5345.866-4.0318.866Zm0-2.219c1.6776 0 2.9855-.415 3.9235-1.244.9381-.83 1.4071-1.94 1.4071-3.329v-5.871c0-1.389-.469-2.49-1.4071-3.302-.938-.829-2.2459-1.244-3.9235-1.244-1.6596 0-2.9584.415-3.8965 1.244-.938.812-1.407 1.913-1.407 3.302v5.871c0 1.389.469 2.499 1.407 3.329.9381.829 2.2369 1.244 3.8965 1.244Zm10.9316-15.099c0-.667.2254-1.181.6764-1.542.451-.379 1.0734-.568 1.8671-.568v9.281l9.8764-9.281c.307.252.559.523.758.812.198.27.297.514.297.73 0 .451-.27.929-.811 1.434l-6.332 5.953 8.172 9.796c-.199.216-.433.387-.704.514-.252.126-.505.189-.758.189-.703 0-1.271-.252-1.704-.758l-6.8462-8.117-1.9482 1.813v5.033c0 .685-.2075 1.199-.6224 1.542-.4149.325-1.0553.487-1.9211.487v-17.318Z"/><path stroke="#FACC15" stroke-linecap="round" stroke-linejoin="round" stroke-width="4.05882" d="M30.0588 19.2353H11.1176C6.63439 19.2353 3 22.8697 3 27.353v110.941c0 4.483 3.63439 8.118 8.1176 8.118h18.9412M113.941 19.2353h18.941c4.484 0 8.118 3.6344 8.118 8.1177v110.941c0 4.483-3.634 8.118-8.118 8.118h-18.941"/></svg>