<svg viewBox="0 0 180 180" fill="none" xmlns="http://www.w3.org/2000/svg">
<path d="M47 63.2046H133.044V128.292C133.044 130.176 131.516 131.703 129.632 131.703H50.4118C48.5275 131.703 47 130.176 47 128.292V63.2046Z" stroke="#292524" stroke-width="4" stroke-linejoin="round"/>
<ellipse cx="70.2122" cy="107.74" rx="4.50346" ry="10.8052" transform="rotate(90 70.2122 107.74)" fill="#FACC15"/>
<ellipse cx="109.831" cy="107.74" rx="4.50346" ry="10.8052" transform="rotate(90 109.831 107.74)" fill="#FACC15"/>
<path d="M70.65 38.4719C57.2384 41.0789 47 46.5883 47 55H133C133 46.4792 122.494 40.9365 108.827 38.3719M70.65 38.4719C82.5227 36.164 96.8821 36.1307 108.827 38.3719M70.65 38.4719C70.65 24.5261 108.827 24.5261 108.827 38.3719" stroke="#292524" stroke-width="4" stroke-linejoin="round"/>
<ellipse cx="90.5" cy="149" rx="42.5" ry="6" fill="#A8A29E"/>
<ellipse cx="73.5" cy="88" rx="5.5" ry="9" fill="#292524"/>
<ellipse cx="104.5" cy="88" rx="5.5" ry="9" fill="#292524"/>
<circle cx="107" cy="87" r="14" stroke="#292524" stroke-width="4"/>
<path d="M124 101C124 102.657 122.657 104 121 104C119.343 104 118 102.657 118 101C118 99.3431 119.343 98 121 98C122.657 98 124 99.3431 124 101Z" fill="#292524"/>
<path d="M129 106C129 107.657 127.657 109 126 109C124.343 109 123 107.657 123 106C123 104.343 124.343 103 126 103C127.657 103 129 104.343 129 106Z" fill="#292524"/>
<path d="M135 111C135 112.657 133.657 114 132 114C130.343 114 129 112.657 129 111C129 109.343 130.343 108 132 108C133.657 108 135 109.343 135 111Z" fill="#292524"/>
</svg>
