<svg xmlns="http://www.w3.org/2000/svg" fill="none" viewBox="0 0 180 180"><path fill="#000" stroke="#000" stroke-linecap="round" stroke-linejoin="round" stroke-miterlimit="10" stroke-width="4" d="M70.7975 83.7604c-2.182 2.1245-3.142 13.7058 1.787 12.7978 4.577-.8436 5.209-10.6415 2.856-13.7625-1.527-2.0264-2.884-.7471-4.643.9647ZM106.559 82.4075c-.613.3096-3.044.2726-3.512 6.2481-.298 3.8021 1.301 10.0195 6.543 7.1278 2.918-1.6093 2.65-8.5028.889-10.8398-.793-1.0514-2.271-3.3689-3.92-2.5361Z"/><path stroke="#000" stroke-linecap="round" stroke-linejoin="round" stroke-miterlimit="10" stroke-width="4" d="M42.4744 63.8481c-.286-.149 92.3616.2431 95.0306.2864m-95.1945-.2384c.027 13.4774-.781 48.6069.108 53.9099.704 4.194 1.4769 14.555 17.3839 16.024 6.033.557 55.6446.77 56.9356.729 18.149-.569 19.407-6.826 20.456-16.267.653-5.879.993-53.2319.305-54.1816M44.8055 50.05c21.6 2.4258 77.4485 5.3182 91.9425 6.5629m-91.9055-6.7326c2.991-12.2444 21.353-16.2664 30.242-17.1062 5.452-.515 15.305-1.2098 22.472-.1077 8.3455 1.2835 14.2995 2.1253 20.3365 4.6155 4.05 1.6704 15.948 6.3909 18.821 18.8877M76.0625 32.2073s-.4531-7.282 1.0809-8.2215c4.211-2.5794 32.7716.5227 34.4686 2.2496 1.635 1.6641.35 8.383.35 8.383"/><path fill="#FACC15" stroke="#FACC15" stroke-linecap="round" stroke-linejoin="round" stroke-miterlimit="10" stroke-width="4" d="M76.7645 108.236c-.35-1.598-5.9391-2.308-7.3111-2.468-2.487-.29-9.044.123-8.565 5.134.246 2.569 4.1961 3.262 6.0341 3.476 2.908.34 9.018 1.293 10.09-3.173.181-.757-.08-2.204-.248-2.969ZM118.263 108.274c-2.216-2.975-8.639-2.64-12.127-1.595-1.46.438-5.759 2.216-4.028 4.255 2.322 2.735 8.485 2.583 11.963 1.743 3.437-.83 5.986-1.995 4.192-4.403Z"/><path fill="#A8A29E" stroke="#A8A29E" stroke-linecap="round" stroke-linejoin="round" stroke-miterlimit="10" stroke-width="4" d="M87.2015 147.738s-13.429-.181-23.803 1.117c-3.83.48-19.339 1.671-17.395 5.024 1.389 2.395 13.62 2.922 17.801 3.135 11.057.563 36.018.705 46.0545.474 11.925-.273 23.412-2.019 22.744-4.18-.668-2.161-11.012-3.364-21.143-4.416-8.115-.842-24.2585-1.154-24.2585-1.154Z"/><path stroke="#000" stroke-linecap="round" stroke-linejoin="round" stroke-miterlimit="10" stroke-width="4" d="M117.794 75.1753c-4.244-2.6792-15.066-4.3878-21.0596 6.4097-3.425 6.1702-1.915 13.6933 2.831 18.2312 5.5646 5.3198 16.0136 3.0228 19.6566.4358 4.829-3.4286 5.795-8.4763 5.985-10.23.614-5.6494-1.496-11.1124-7.413-14.8467ZM119.219 100.584c-.212 2.075.153 5.02.864 7.313 2.038 6.566 8.769 14.664 16.164 14.423"/></svg>