<svg xmlns="http://www.w3.org/2000/svg" fill="none" viewBox="0 0 180 180"><path stroke="#000" stroke-linecap="round" stroke-linejoin="round" stroke-miterlimit="10" stroke-width="4" d="M42.4745 65.848c-.286-.1489 92.3625.2431 95.0315.2865m-95.1955-.2385c.027 13.4775-.781 48.608.108 53.91.704 4.194 1.477 14.554 17.383 16.023 6.034.558 55.6445.77 56.9365.73 18.149-.569 19.407-6.825 20.456-16.267.653-5.878.993-53.2319.305-54.1816M44.8055 52.05c21.6 2.4258 77.4485 5.3181 91.9425 6.5629m-91.9055-6.7326c2.991-12.2444 21.353-16.2664 30.242-17.1062 5.452-.515 15.305-1.2098 22.471-.1077 8.3465 1.2835 14.3015 2.1253 20.3385 4.6155 4.05 1.6703 15.947 6.3908 18.82 18.8876M76.0625 34.2073s-.453-7.282 1.081-8.2215c4.211-2.5794 32.7715.5227 34.4685 2.2496 1.634 1.6641.349 8.383.349 8.383"/><path stroke="#000" stroke-linecap="round" stroke-linejoin="round" stroke-miterlimit="10" stroke-width="4" d="M63.8304 80.6592s6.29-1.295 10.839-4.3684M106.154 77.6732c4.495 2.3542 9.259 3.2431 9.259 3.2431"/><path fill="#000" stroke="#000" stroke-linecap="round" stroke-linejoin="round" stroke-miterlimit="10" stroke-width="4" d="M70.9955 86.9115c-2.182 2.1246-3.142 13.7065 1.787 12.7978 4.577-.8435 5.208-10.6415 2.856-13.7625-1.528-2.0264-2.885-.7471-4.643.9647ZM106.757 85.5587c-.613.3096-3.044.2726-3.511 6.2481-.298 3.8021 1.3 10.0182 6.543 7.1279 2.917-1.6093 2.65-8.5029.888-10.8399-.792-1.0514-2.272-3.3689-3.92-2.5361Z"/><path fill="#FACC15" stroke="#FACC15" stroke-linecap="round" stroke-linejoin="round" stroke-miterlimit="10" stroke-width="4" d="M76.7644 110.237c-.35-1.598-5.939-2.308-7.311-2.468-2.487-.291-9.044.122-8.565 5.134.246 2.568 4.1961 3.261 6.0341 3.476 2.908.34 9.0179 1.292 10.0899-3.174.181-.756-.08-2.203-.248-2.968ZM118.263 110.275c-2.216-2.976-8.639-2.641-12.127-1.595-1.46.438-5.759 2.215-4.028 4.254 2.322 2.735 8.485 2.584 11.963 1.744 3.437-.83 5.986-1.995 4.192-4.403Z"/><path fill="#A8A29E" stroke="#A8A29E" stroke-linecap="round" stroke-linejoin="round" stroke-miterlimit="10" stroke-width="4" d="M87.2015 149.739s-13.43-.181-23.803 1.117c-3.83.479-19.34 1.671-17.395 5.023 1.389 2.396 13.62 2.922 17.801 3.135 11.057.563 36.018.705 46.0545.475 11.925-.273 23.412-2.02 22.744-4.18-.668-2.161-11.012-3.365-21.143-4.416-8.115-.843-24.2585-1.154-24.2585-1.154Z"/></svg>