<svg viewBox="0 0 180 180" fill="none" xmlns="http://www.w3.org/2000/svg">
<path d="M47 63.2046H133.044V128.292C133.044 130.176 131.516 131.703 129.632 131.703H50.4118C48.5275 131.703 47 130.176 47 128.292V63.2046Z" stroke="#292524" stroke-width="4" stroke-linejoin="round"/>
<path d="M81 90C81 94.9706 78.5376 99 75.5 99C72.4624 99 70 94.9706 70 90C70 85.0294 72.4624 81 75.5 81C78.5376 81 81 85.0294 81 90Z" fill="#292524"/>
<path d="M110 90C110 94.9706 107.538 99 104.5 99C101.462 99 99 94.9706 99 90C99 85.0294 101.462 81 104.5 81C107.538 81 110 85.0294 110 90Z" fill="#292524"/>
<path d="M70.2122 112.244C64.2446 112.244 59.407 110.227 59.407 107.74C59.407 105.253 64.2446 103.237 70.2122 103.237C76.1797 103.237 81.0174 105.253 81.0174 107.74C81.0174 110.227 76.1797 112.244 70.2122 112.244Z" fill="#FACC15"/>
<path d="M109.831 112.244C103.864 112.244 99.0262 110.227 99.0262 107.74C99.0262 105.253 103.864 103.237 109.831 103.237C115.799 103.237 120.637 105.253 120.637 107.74C120.637 110.227 115.799 112.244 109.831 112.244Z" fill="#FACC15"/>
<path d="M70.65 38.4719C57.2384 41.0789 47 46.5883 47 55H133C133 46.4792 122.494 40.9365 108.827 38.3719M70.65 38.4719C82.5227 36.164 96.8821 36.1307 108.827 38.3719M70.65 38.4719C70.65 24.5261 108.827 24.5261 108.827 38.3719" stroke="#292524" stroke-width="4" stroke-linejoin="round"/>
<path d="M70.1142 76.4002L76.4003 73.8858M102.575 73.8303L108.914 76.2095" stroke="#292524" stroke-width="4" stroke-linecap="round"/>
<ellipse cx="90.5" cy="149" rx="42.5" ry="6" fill="#A8A29E"/>
</svg>
