<svg viewBox="0 0 180 180" fill="none" xmlns="http://www.w3.org/2000/svg">
<path d="M153.578 93.1621H155.578V91.1621H153.578V93.1621ZM27.5785 93.1621V91.1621H25.5785V93.1621H27.5785ZM157.995 31.655L157.006 33.3935L157.006 33.3935L157.995 31.655ZM162.145 34.0154L163.134 32.2769L163.134 32.2769L162.145 34.0154ZM163.71 41.3123L165.321 42.4972L165.325 42.4925L163.71 41.3123ZM125.578 93.1621V95.1621H126.59L127.19 94.3471L125.578 93.1621ZM116.578 93.1621L114.849 92.1585L113.106 95.1621H116.578V93.1621ZM151.193 33.5008L152.923 34.5045L152.925 34.501L151.193 33.5008ZM128.568 35.8275L128.834 33.8452L128.834 33.8452L128.568 35.8275ZM131.032 36.158L130.766 38.1403L130.766 38.1403L131.032 36.158ZM122.948 40.1136L124.929 40.3888L124.93 40.3814L122.948 40.1136ZM135.233 42.2632L137.179 42.723L137.179 42.723L135.233 42.2632ZM109.078 148.162H72.0785V152.162H109.078V148.162ZM151.578 93.1621V105.662H155.578V93.1621H151.578ZM29.5785 105.662V93.1621H25.5785V105.662H29.5785ZM72.0785 148.162C48.6064 148.162 29.5785 129.134 29.5785 105.662H25.5785C25.5785 131.343 46.3972 152.162 72.0785 152.162V148.162ZM109.078 152.162C134.76 152.162 155.578 131.343 155.578 105.662H151.578C151.578 129.134 132.551 148.162 109.078 148.162V152.162ZM157.006 33.3935L161.156 35.7539L163.134 32.2769L158.984 29.9165L157.006 33.3935ZM162.099 40.1274L123.967 91.9772L127.19 94.3471L165.321 42.4972L162.099 40.1274ZM118.308 94.1658L152.923 34.5045L149.463 32.4971L114.849 92.1585L118.308 94.1658ZM125.578 91.1621H116.578V95.1621H125.578V91.1621ZM161.156 35.7539C162.714 36.6399 163.153 38.6852 162.095 40.132L165.325 42.4925C167.792 39.1166 166.769 34.3442 163.134 32.2769L161.156 35.7539ZM158.984 29.9165C155.639 28.0141 151.385 29.1683 149.461 32.5007L152.925 34.501C153.75 33.0728 155.573 32.5782 157.006 33.3935L158.984 29.9165ZM128.302 37.8097L130.766 38.1403L131.298 34.1758L128.834 33.8452L128.302 37.8097ZM117.559 93.4374L124.929 40.3888L120.967 39.8384L113.597 92.8869L117.559 93.4374ZM133.286 41.8034L125.632 74.2033L129.525 75.1229L137.179 42.723L133.286 41.8034ZM130.766 38.1403C132.523 38.3761 133.694 40.0773 133.286 41.8034L137.179 42.723C138.131 38.6955 135.399 34.7262 131.298 34.1758L130.766 38.1403ZM128.834 33.8452C125.005 33.3314 121.484 36.0171 120.966 39.8458L124.93 40.3814C125.152 38.7405 126.661 37.5895 128.302 37.8097L128.834 33.8452ZM153.578 91.1621H27.5785V95.1621H153.578V91.1621Z" fill="#292524"/>
<path d="M67.4997 136.855C61.7009 136.811 57.013 135.036 57.029 132.888C57.045 130.741 61.7589 129.035 67.5577 129.078C73.3566 129.122 78.0445 130.898 78.0284 133.045C78.0124 135.192 73.2985 136.898 67.4997 136.855Z" fill="#A8A29E"/>
<path d="M115.5 136.277C109.701 136.234 105.012 134.587 105.027 132.599C105.042 130.611 109.755 129.035 115.553 129.078C121.352 129.122 126.041 130.768 126.026 132.756C126.011 134.744 121.299 136.32 115.5 136.277Z" fill="#A8A29E"/>
<path d="M29.5784 65.1621C29.5784 64.0575 28.683 63.1621 27.5784 63.1621C26.4739 63.1621 25.5784 64.0575 25.5784 65.1621H29.5784ZM25.5784 76.1621C25.5784 77.2667 26.4739 78.1621 27.5784 78.1621C28.683 78.1621 29.5784 77.2667 29.5784 76.1621H25.5784ZM176.249 98.1065C177.351 98.1877 178.31 97.3605 178.391 96.2589C178.472 95.1573 177.645 94.1985 176.543 94.1173L176.249 98.1065ZM165.573 93.309C164.471 93.2279 163.513 94.0551 163.431 95.1567C163.35 96.2583 164.178 97.2171 165.279 97.2982L165.573 93.309ZM170.13 74.0482C170.744 73.1301 170.498 71.888 169.58 71.2739C168.661 70.6599 167.419 70.9064 166.805 71.8246L170.13 74.0482ZM160.69 80.9682C160.076 81.8864 160.323 83.1285 161.241 83.7425C162.159 84.3566 163.401 84.11 164.015 83.1919L160.69 80.9682ZM8.51923 74.0478C7.61687 73.4108 6.36894 73.6259 5.7319 74.5282C5.09486 75.4306 5.30994 76.6785 6.2123 77.3156L8.51923 74.0478ZM15.1986 83.6596C16.1009 84.2967 17.3489 84.0816 17.9859 83.1792C18.6229 82.2769 18.4079 81.0289 17.5055 80.3919L15.1986 83.6596ZM15.1585 99.5252C16.2308 99.2601 16.8851 98.1759 16.62 97.1036C16.3548 96.0314 15.2707 95.377 14.1984 95.6422L15.1585 99.5252ZM3.51995 98.2824C2.44767 98.5475 1.79334 99.6317 2.05847 100.704C2.32359 101.776 3.40777 102.431 4.48005 102.165L3.51995 98.2824ZM25.5784 65.1621V76.1621H29.5784V65.1621H25.5784ZM176.543 94.1173L165.573 93.309L165.279 97.2982L176.249 98.1065L176.543 94.1173ZM166.805 71.8246L160.69 80.9682L164.015 83.1919L170.13 74.0482L166.805 71.8246ZM6.2123 77.3156L15.1986 83.6596L17.5055 80.3919L8.51923 74.0478L6.2123 77.3156ZM14.1984 95.6422L3.51995 98.2824L4.48005 102.165L15.1585 99.5252L14.1984 95.6422Z" fill="#292524"/>
<path d="M74.5785 115.662C74.5785 120.357 72.5637 124.162 70.0785 124.162C67.5932 124.162 65.5785 120.357 65.5785 115.662C65.5785 110.968 67.5932 107.162 70.0785 107.162C72.5637 107.162 74.5785 110.968 74.5785 115.662Z" fill="#292524"/>
<path d="M113.578 115.662C113.578 120.357 111.564 124.162 109.078 124.162C106.593 124.162 104.578 120.357 104.578 115.662C104.578 110.968 106.593 107.162 109.078 107.162C111.564 107.162 113.578 110.968 113.578 115.662Z" fill="#292524"/>
</svg>
