<svg xmlns="http://www.w3.org/2000/svg" fill="none" viewBox="0 0 180 180"><path stroke="#000" stroke-linecap="round" stroke-linejoin="round" stroke-miterlimit="10" stroke-width="4" d="M29.8745 92.0923c6.473-.0914 54.7816.242 59.9346.3265 6.8814.113 60.5339.2522 62.8539.5809m-123.7817-.8251c-.2094 6.8748 1.8783 20.2334 7.4641 31.0404 6.6744 12.913 18.7781 20.802 55.6245 21.137 46.5841.423 52.2381-15.307 54.7581-21.161 4.123-9.578 6.563-29.078 6.253-30.1168m-36.304-2.0977c4.101-8.2015 27.06-54.1836 31.314-56.2054 5.96-2.832 10.994 2.8435 10.438 5.6206-1.142 5.7098-32.142 51.1998-33.723 51.9899m-11.778-.1154c1.002-8.7861 7.146-47.4418 7.613-52.6368.288-3.1945 9.881-2.7079 10.689.5266 1.574 6.2924-4.484 31.2749-5.093 32.4936m-97.0406-6.9305 1.7118 10.6038m-19.4311-.7018s5.4531 4.1048 7.6492 5.346M10 98.5196s8.5583-1.5848 10.2404-2.0521M164.089 74.8146l-5.316 8.7961m2.416 12.6621 9.343 2.0144"/><path fill="#000" stroke="#000" stroke-linecap="round" stroke-linejoin="round" stroke-miterlimit="10" stroke-width="4" d="M72.7785 107.819c-1.0106-.154-3.0334.753-3.601 5.706-.5677 4.953 2.0582 7.135 3.7183 6.933 1.6436-.201 3.402-2.502 3.5427-5.684.2975-6.727-3.6168-6.995-3.6168-6.995s1.124.217-.0432.04ZM110.797 107.291c-2.054-1.251-4.475 2.225-5.13 3.942-.753 1.97-.479 4.648-.009 7.037.178.904 1.528 2.262 2.522 2.521 1.255.327 2.963-.573 3.727-2.128 1.178-2.4 1.488-9.79-1.11-11.372Z"/><path fill="#A8A29E" stroke="#A8A29E" stroke-linecap="round" stroke-linejoin="round" stroke-miterlimit="10" stroke-width="4" d="M78.3426 129.442c-.9082-.644-1.8743-.976-3.1856-1.178-2.979-.458-6.779-.232-9.6738.02-.8187.071-3.7644.782-3.4614 1.828.4132 1.427 3.0952 2.316 4.4287 2.55 3.2828.575 11.2925.674 12.339-1.823.2378-.568.4612-.753-.4469-1.397ZM112.607 128.032c-2.08.014-3.431-.239-6.063.482-.71.195-2.786 1.1-2.521 1.943.611 1.948 2.197 2.08 4.142 2.348 2.941.406 7.348.201 10.574-.833 1.383-.443 1.539-1.913.901-2.633-.638-.72-1.594-.918-1.97-1.047-.067-.023-2.981-.272-5.063-.26Z"/></svg>