<svg viewBox="0 0 180 140" fill="none" xmlns="http://www.w3.org/2000/svg">
<path d="M47 61.2046H133.044V126.292C133.044 128.176 131.516 129.703 129.632 129.703H50.4118C48.5275 129.703 47 128.176 47 126.292V61.2046Z" stroke="#292524" stroke-width="4" stroke-linejoin="round"/>
<ellipse cx="70.2122" cy="105.74" rx="4.50346" ry="10.8052" transform="rotate(90 70.2122 105.74)" fill="#FACC15"/>
<ellipse cx="109.831" cy="105.74" rx="4.50346" ry="10.8052" transform="rotate(90 109.831 105.74)" fill="#FACC15"/>
<path d="M70.65 36.4719C57.2384 39.0789 47 44.5883 47 53H133C133 44.4792 122.494 38.9365 108.827 36.3719M70.65 36.4719C82.5227 34.164 96.8821 34.1307 108.827 36.3719M70.65 36.4719C70.65 22.5261 108.827 22.5261 108.827 36.3719" stroke="#292524" stroke-width="4" stroke-linejoin="round"/>
<path d="M63.5 91C63.5 91 67.9369 85 72 85C76.0631 85 80.5 91 80.5 91M97 91C97 91 101.437 85 105.5 85C109.563 85 114 91 114 91" stroke="#292524" stroke-width="4" stroke-linecap="round" stroke-linejoin="round"/>
</svg>
