<svg xmlns="http://www.w3.org/2000/svg" fill="none" viewBox="0 0 180 140"><path stroke="#000" stroke-linecap="round" stroke-linejoin="round" stroke-miterlimit="10" stroke-width="4" d="M42.4745 61.8481c-.286-.1489 92.3615.2431 95.0305.2865m-95.1945-.2385c.027 13.4774-.781 48.6079.108 53.9099.704 4.194 1.476 14.555 17.383 16.024 6.033.557 55.6445.77 56.9365.729 18.149-.569 19.407-6.826 20.455-16.267.653-5.879.994-53.2319.306-54.1815M44.8055 48.05c21.599 2.4259 77.4485 5.3182 91.9425 6.5629m-91.9055-6.7325c2.99-12.2445 21.352-16.2665 30.242-17.1062 5.452-.5151 15.305-1.2098 22.471-.1078 8.3465 1.2835 14.3005 2.1253 20.3375 4.6155 4.05 1.6704 15.948 6.3909 18.821 18.8877M76.0625 30.2073s-.453-7.282 1.081-8.2215c4.211-2.5794 32.7715.5228 34.4675 2.2496 1.635 1.6641.35 8.383.35 8.383"/><path fill="#FACC15" stroke="#FACC15" stroke-linecap="round" stroke-linejoin="round" stroke-miterlimit="10" stroke-width="4" d="M76.7645 106.236c-.35-1.598-5.939-2.308-7.312-2.468-2.486-.29-9.043.123-8.564 5.135.246 2.568 4.195 3.261 6.034 3.476 2.908.339 9.018 1.292 10.089-3.174.182-.756-.079-2.204-.247-2.969ZM118.264 106.274c-2.217-2.975-8.64-2.64-12.128-1.595-1.46.438-5.759 2.216-4.029 4.255 2.322 2.735 8.485 2.584 11.963 1.744 3.437-.831 5.988-1.996 4.194-4.404Z"/><path stroke="#000" stroke-linecap="round" stroke-linejoin="round" stroke-miterlimit="10" stroke-width="4" d="M60.2245 89.39s4.357-5.1544 8.608-6.0716c3.66-.79 8.757 7.0489 8.757 7.0489M100.795 91.1906s3.971-7.2418 8.635-7.5247c3.829-.2322 8.772 6.9182 8.772 6.9182"/></svg>