<svg xmlns="http://www.w3.org/2000/svg" fill="none" viewBox="0 0 27 32"><path stroke="#292524" stroke-linecap="round" stroke-linejoin="round" stroke-miterlimit="10" stroke-width="1.5" d="M2.6335 11.9382c2.226-.3892 20.31.4254 22.078.5805m-22.095-.4794c-.393.1473-1.628197 15.333 1.134 16.1651 4.254 1.2817 16.543 1.4571 19.239.2945 1.399-.6037 1.793-4.7219 1.855-8.827.04-2.6969-.064-5.388-.12-7.0733M9.97653 5.32286c.011.04344-.04-2.54586.42997-2.59803 4.045-.44966 8.542.42826 8.714.85136.243.59595.11 1.8013-.085 2.41953M3.56953 8.99365c5.366.36257 18.63897 1.53095 20.47297 1.34845 1.83-.1821-1.07-2.39768-2.569-3.16116-4.136-2.10717-11.299-2.3206-14.72598-1.04323-1.9.70798-4.93999 2.73692-3.17799 2.85594Z"/><path fill="#292524" stroke="#292524" stroke-linejoin="round" stroke-miterlimit="10" stroke-width="1.5" d="M9.93748 17.2569c-.955-.5339-1.721 2.4481-.627 2.6065.96902.1405.98802-.2408 1.15102-1.2074.163-.9621-.154-1.1921-.52402-1.3991Zm7.28702.6189c-.177.4415-.304 2.0225.596 2.0128.378-.004.64.0311.831-.618.19-.649.033-1.0314-.065-1.2886-.503-1.3075-1.185-.5496-1.362-.1062Z"/><path fill="#FACC15" stroke="#FACC15" stroke-linejoin="round" stroke-miterlimit="10" stroke-width="1.5" d="M10.1145 23.0751c-.71302-.4859-3.76901-.5827-2.69801.6453.314.3604 3.68601.4895 2.64401-.6914l.054.0461Zm6.415.1527c-.019.3099.52.8093 1.595.8178 1.689.0135 1.773-.7306 1.838-.8759.22-.4949-1.166-.5925-1.961-.5423-.802.0505-1.442.1159-1.472.6004Z"/></svg>