<svg width="27" height="32" viewBox="0 0 27 32" fill="none" xmlns="http://www.w3.org/2000/svg">
<path d="M2.75 12.2315H24.25V28C24.25 28.6903 23.6904 29.25 23 29.25H4C3.30964 29.25 2.75 28.6903 2.75 28V12.2315Z" stroke="black" stroke-width="1.5"/>
<ellipse cx="9.36" cy="18.3834" rx="1.84" ry="2.30065" fill="black"/>
<ellipse cx="17.64" cy="18.3834" rx="1.84" ry="2.30065" fill="black"/>
<ellipse cx="8.44" cy="23.3682" rx="1.15033" ry="2.76" transform="rotate(90 8.44 23.3682)" fill="#F2DE2C"/>
<ellipse cx="18.56" cy="23.3682" rx="1.15033" ry="2.76" transform="rotate(90 18.56 23.3682)" fill="#F2DE2C"/>
<path d="M8.81786 5.51383C5.57264 6.13965 3.09524 7.4622 3.09524 9.48148H23.9048C23.9048 7.43601 21.3627 6.10546 18.0555 5.48983M8.81786 5.51383C11.6907 4.95982 15.1653 4.95182 18.0555 5.48983M8.81786 5.51383C8.81786 2.16607 18.0555 2.16607 18.0555 5.48983" stroke="black" stroke-width="1.5"/>
</svg>
