<svg viewBox="0 0 32 32" fill="none" xmlns="http://www.w3.org/2000/svg">
<path d="M5.25 12.2315H26.75V28C26.75 28.6903 26.1904 29.25 25.5 29.25H6.5C5.80964 29.25 5.25 28.6903 5.25 28V12.2315Z" stroke="#292524" stroke-width="1.5"/>
<path d="M13.7 18.3834C13.7 19.6541 12.8762 20.6841 11.86 20.6841C10.8438 20.6841 10.02 19.6541 10.02 18.3834C10.02 17.1128 10.8438 16.0828 11.86 16.0828C12.8762 16.0828 13.7 17.1128 13.7 18.3834Z" fill="#292524"/>
<path d="M21.98 18.3834C21.98 19.6541 21.1562 20.6841 20.14 20.6841C19.1238 20.6841 18.3 19.6541 18.3 18.3834C18.3 17.1128 19.1238 16.0828 20.14 16.0828C21.1562 16.0828 21.98 17.1128 21.98 18.3834Z" fill="#292524"/>
<path d="M10.94 24.5185C9.41569 24.5185 8.17999 24.0035 8.17999 23.3682C8.17999 22.7329 9.41569 22.2179 10.94 22.2179C12.4643 22.2179 13.7 22.7329 13.7 23.3682C13.7 24.0035 12.4643 24.5185 10.94 24.5185Z" fill="#FACC15"/>
<path d="M21.06 24.5185C19.5357 24.5185 18.3 24.0035 18.3 23.3682C18.3 22.7329 19.5357 22.2179 21.06 22.2179C22.5843 22.2179 23.82 22.7329 23.82 23.3682C23.82 24.0035 22.5843 24.5185 21.06 24.5185Z" fill="#FACC15"/>
<path d="M11.1625 5.51383C7.80961 6.13965 5.25 7.4622 5.25 9.48148H26.75C26.75 7.43601 24.1236 6.10546 20.7066 5.48983M11.1625 5.51383C14.1307 4.95982 17.7205 4.95182 20.7066 5.48983M11.1625 5.51383C11.1625 2.16607 20.7066 2.16607 20.7066 5.48983" stroke="#292524" stroke-width="1.5"/>
</svg>
