<svg viewBox="0 0 168 168" fill="none" xmlns="http://www.w3.org/2000/svg">
<path d="M54.9118 72.2734H113.088V114.941C113.088 116.809 111.574 118.324 109.706 118.324H58.2941C56.4261 118.324 54.9118 116.809 54.9118 114.941V72.2734Z" stroke="#292524" stroke-width="4.05882" stroke-linejoin="round"/>
<ellipse cx="72.7976" cy="88.9199" rx="4.97882" ry="6.2253" fill="#292524"/>
<ellipse cx="95.2024" cy="88.9199" rx="4.97882" ry="6.2253" fill="#292524"/>
<ellipse cx="70.3082" cy="102.408" rx="3.11265" ry="7.46824" transform="rotate(90 70.3082 102.408)" fill="#FACC15"/>
<ellipse cx="97.6918" cy="102.408" rx="3.11265" ry="7.46824" transform="rotate(90 97.6918 102.408)" fill="#FACC15"/>
<path d="M71.3307 54.0962C62.5495 55.7896 55.8459 59.3683 55.8459 64.8322H112.154C112.154 59.2974 105.275 55.6971 96.3266 54.0313M71.3307 54.0962C79.1043 52.5971 88.506 52.5755 96.3266 54.0313M71.3307 54.0962C71.3307 45.0375 96.3266 45.0375 96.3266 54.0313" stroke="#292524" stroke-width="4.05882" stroke-linejoin="round"/>
<path d="M59.3049 32.2435C57.7896 32.2435 56.4366 31.9639 55.246 31.4047C54.0554 30.8275 53.1264 30.0337 52.459 29.0235C51.8096 27.9953 51.4849 26.8318 51.4849 25.5329V19.4718C51.4849 18.1729 51.8096 17.0184 52.459 16.0082C53.1264 14.998 54.0464 14.2133 55.219 13.6541C56.3915 13.0949 57.7354 12.8153 59.2507 12.8153C60.766 12.8153 62.11 13.0588 63.2825 13.5459C64.4551 14.0149 65.366 14.6733 66.0154 15.5212C66.6829 16.369 67.0166 17.3431 67.0166 18.4435C67.0166 18.9847 66.8362 19.4086 66.4754 19.7153C66.1147 20.022 65.6366 20.1753 65.0413 20.1753C64.9151 20.1753 64.7256 20.1573 64.4731 20.1212C64.5092 19.9047 64.5272 19.562 64.5272 19.0929C64.5272 18.3173 64.3017 17.6227 63.8507 17.0094C63.4178 16.3961 62.7954 15.918 61.9837 15.5753C61.19 15.2325 60.279 15.0612 59.2507 15.0612C58.2405 15.0612 57.3386 15.2506 56.5449 15.6294C55.7511 15.9902 55.1288 16.5133 54.6778 17.1988C54.2449 17.8663 54.0284 18.6239 54.0284 19.4718V25.5329C54.0284 26.3988 54.2449 27.1745 54.6778 27.86C55.1288 28.5275 55.7511 29.0506 56.5449 29.4294C57.3566 29.8082 58.2766 29.9976 59.3049 29.9976C60.3511 29.9976 61.2802 29.8263 62.0919 29.4835C62.9037 29.1408 63.5351 28.6718 63.986 28.0765C64.437 27.4631 64.6625 26.7596 64.6625 25.9659C64.6625 25.6773 64.6445 25.3345 64.6084 24.9376C64.8609 24.9016 65.0413 24.8835 65.1496 24.8835C65.7449 24.8835 66.2229 25.0549 66.5837 25.3976C66.9625 25.7404 67.1519 26.2004 67.1519 26.7776C67.1519 27.842 66.8182 28.789 66.1507 29.6188C65.4833 30.4486 64.5543 31.098 63.3637 31.5671C62.1911 32.018 60.8382 32.2435 59.3049 32.2435ZM77.3692 32.2435C75.8719 32.2435 74.528 31.9549 73.3374 31.3776C72.1648 30.7824 71.2448 29.9706 70.5774 28.9424C69.9099 27.8961 69.5762 26.7416 69.5762 25.4788V19.5259C69.5762 18.2631 69.9099 17.1267 70.5774 16.1165C71.2448 15.0882 72.1648 14.2855 73.3374 13.7082C74.528 13.1129 75.8719 12.8153 77.3692 12.8153C78.8845 12.8153 80.2284 13.1129 81.4009 13.7082C82.5915 14.2855 83.5205 15.0882 84.188 16.1165C84.8554 17.1267 85.1892 18.2631 85.1892 19.5259V25.4788C85.1892 26.7416 84.8554 27.8961 84.188 28.9424C83.5205 29.9706 82.5915 30.7824 81.4009 31.3776C80.2103 31.9549 78.8664 32.2435 77.3692 32.2435ZM77.3692 30.0247C79.0468 30.0247 80.3547 29.6098 81.2927 28.78C82.2307 27.9502 82.6998 26.8408 82.6998 25.4518V19.58C82.6998 18.191 82.2307 17.0906 81.2927 16.2788C80.3547 15.449 79.0468 15.0341 77.3692 15.0341C75.7096 15.0341 74.4107 15.449 73.4727 16.2788C72.5347 17.0906 72.0656 18.191 72.0656 19.58V25.4518C72.0656 26.8408 72.5347 27.9502 73.4727 28.78C74.4107 29.6098 75.7096 30.0247 77.3692 30.0247ZM95.4172 32.2435C93.9199 32.2435 92.576 31.9549 91.3854 31.3776C90.2129 30.7824 89.2929 29.9706 88.6254 28.9424C87.958 27.8961 87.6242 26.7416 87.6242 25.4788V19.5259C87.6242 18.2631 87.958 17.1267 88.6254 16.1165C89.2929 15.0882 90.2129 14.2855 91.3854 13.7082C92.576 13.1129 93.9199 12.8153 95.4172 12.8153C96.9325 12.8153 98.2764 13.1129 99.449 13.7082C100.64 14.2855 101.569 15.0882 102.236 16.1165C102.903 17.1267 103.237 18.2631 103.237 19.5259V25.4788C103.237 26.7416 102.903 27.8961 102.236 28.9424C101.569 29.9706 100.64 30.7824 99.449 31.3776C98.2584 31.9549 96.9144 32.2435 95.4172 32.2435ZM95.4172 30.0247C97.0948 30.0247 98.4027 29.6098 99.3407 28.78C100.279 27.9502 100.748 26.8408 100.748 25.4518V19.58C100.748 18.191 100.279 17.0906 99.3407 16.2788C98.4027 15.449 97.0948 15.0341 95.4172 15.0341C93.7576 15.0341 92.4588 15.449 91.5207 16.2788C90.5827 17.0906 90.1137 18.191 90.1137 19.58V25.4518C90.1137 26.8408 90.5827 27.9502 91.5207 28.78C92.4588 29.6098 93.7576 30.0247 95.4172 30.0247ZM106.349 14.9259C106.349 14.2584 106.574 13.7443 107.025 13.3835C107.476 13.0047 108.099 12.8153 108.892 12.8153V22.0965L118.769 12.8153C119.075 13.0678 119.328 13.3384 119.526 13.6271C119.725 13.8976 119.824 14.1412 119.824 14.3576C119.824 14.8086 119.553 15.2867 119.012 15.7918L112.681 21.7447L120.852 31.54C120.654 31.7565 120.419 31.9278 120.149 32.0541C119.896 32.1804 119.644 32.2435 119.391 32.2435C118.688 32.2435 118.119 31.991 117.686 31.4859L110.841 23.3682L108.892 25.1812V30.2141C108.892 30.8996 108.685 31.4137 108.27 31.7565C107.855 32.0812 107.215 32.2435 106.349 32.2435V14.9259Z" fill="#292524"/>
<path d="M53.4008 156.471C53.04 156.471 52.7333 156.353 52.4808 156.119C52.2282 155.884 52.102 155.605 52.102 155.28V138.72C52.102 138.377 52.2282 138.098 52.4808 137.881C52.7333 137.647 53.04 137.529 53.4008 137.529H60.9231C62.4925 137.529 63.7373 137.998 64.6573 138.936C65.5953 139.875 66.0643 141.137 66.0643 142.725C66.0643 143.573 65.8388 144.366 65.3878 145.106C64.9369 145.845 64.3506 146.396 63.629 146.756V146.811C64.6573 147.117 65.451 147.649 66.0102 148.407C66.5694 149.147 66.849 150.049 66.849 151.113C66.849 152.159 66.6235 153.088 66.1725 153.9C65.7396 154.712 65.1263 155.343 64.3325 155.794C63.5388 156.245 62.6278 156.471 61.5996 156.471H53.4008ZM60.869 145.891C61.6086 145.891 62.24 145.593 62.7631 144.998C63.3043 144.384 63.5749 143.645 63.5749 142.779C63.5749 141.823 63.3314 141.074 62.8443 140.533C62.3753 139.992 61.7169 139.721 60.869 139.721H54.6184V145.891H60.869ZM61.4102 154.279C62.3302 154.279 63.0518 154.008 63.5749 153.467C64.098 152.908 64.3596 152.132 64.3596 151.14C64.3596 150.184 64.098 149.435 63.5749 148.894C63.0698 148.353 62.3482 148.082 61.4102 148.082H54.6184V154.279H61.4102ZM77.0815 156.714C75.5842 156.714 74.2403 156.425 73.0497 155.848C71.8772 155.253 70.9572 154.441 70.2897 153.413C69.6223 152.367 69.2885 151.212 69.2885 149.949V143.996C69.2885 142.734 69.6223 141.597 70.2897 140.587C70.9572 139.559 71.8772 138.756 73.0497 138.179C74.2403 137.584 75.5842 137.286 77.0815 137.286C78.5968 137.286 79.9407 137.584 81.1132 138.179C82.3038 138.756 83.2329 139.559 83.9003 140.587C84.5678 141.597 84.9015 142.734 84.9015 143.996V149.949C84.9015 151.212 84.5678 152.367 83.9003 153.413C83.2329 154.441 82.3038 155.253 81.1132 155.848C79.9227 156.425 78.5787 156.714 77.0815 156.714ZM77.0815 154.495C78.7591 154.495 80.067 154.08 81.005 153.251C81.943 152.421 82.4121 151.311 82.4121 149.922V144.051C82.4121 142.662 81.943 141.561 81.005 140.749C80.067 139.92 78.7591 139.505 77.0815 139.505C75.4219 139.505 74.123 139.92 73.185 140.749C72.247 141.561 71.7779 142.662 71.7779 144.051V149.922C71.7779 151.311 72.247 152.421 73.185 153.251C74.123 154.08 75.4219 154.495 77.0815 154.495ZM95.1295 156.714C93.6322 156.714 92.2883 156.425 91.0977 155.848C89.9252 155.253 89.0052 154.441 88.3377 153.413C87.6703 152.367 87.3366 151.212 87.3366 149.949V143.996C87.3366 142.734 87.6703 141.597 88.3377 140.587C89.0052 139.559 89.9252 138.756 91.0977 138.179C92.2883 137.584 93.6322 137.286 95.1295 137.286C96.6448 137.286 97.9887 137.584 99.1613 138.179C100.352 138.756 101.281 139.559 101.948 140.587C102.616 141.597 102.95 142.734 102.95 143.996V149.949C102.95 151.212 102.616 152.367 101.948 153.413C101.281 154.441 100.352 155.253 99.1613 155.848C97.9707 156.425 96.6268 156.714 95.1295 156.714ZM95.1295 154.495C96.8071 154.495 98.115 154.08 99.053 153.251C99.9911 152.421 100.46 151.311 100.46 149.922V144.051C100.46 142.662 99.9911 141.561 99.053 140.749C98.115 139.92 96.8071 139.505 95.1295 139.505C93.4699 139.505 92.1711 139.92 91.233 140.749C90.295 141.561 89.826 142.662 89.826 144.051V149.922C89.826 151.311 90.295 152.421 91.233 153.251C92.1711 154.08 93.4699 154.495 95.1295 154.495ZM106.061 139.396C106.061 138.729 106.287 138.215 106.738 137.854C107.189 137.475 107.811 137.286 108.605 137.286V146.567L118.481 137.286C118.788 137.538 119.04 137.809 119.239 138.098C119.437 138.368 119.536 138.612 119.536 138.828C119.536 139.279 119.266 139.757 118.725 140.262L112.393 146.215L120.565 156.011C120.366 156.227 120.132 156.398 119.861 156.525C119.609 156.651 119.356 156.714 119.103 156.714C118.4 156.714 117.832 156.462 117.399 155.956L110.553 147.839L108.605 149.652V154.685C108.605 155.37 108.397 155.884 107.982 156.227C107.567 156.552 106.927 156.714 106.061 156.714V139.396Z" fill="#292524"/>
<path d="M42.0588 20.2354H23.1176C18.6344 20.2354 15 23.8697 15 28.353V139.294C15 143.777 18.6344 147.412 23.1176 147.412H42.0588M125.941 20.2354H144.882C149.366 20.2354 153 23.8697 153 28.353V139.294C153 143.777 149.366 147.412 144.882 147.412H125.941" stroke="#FACC15" stroke-width="4.05882" stroke-linecap="round" stroke-linejoin="round"/>
</svg>
