<svg xmlns="http://www.w3.org/2000/svg" fill="none" viewBox="0 0 116 32"><path fill="#292524" d="M35.584 23.144c-.896 0-1.696-.1653-2.4-.496-.704-.3413-1.2533-.8107-1.648-1.408-.384-.608-.576-1.296-.576-2.064v-3.584c0-.768.192-1.4507.576-2.048.3947-.5973.9387-1.0613 1.632-1.392.6933-.3307 1.488-.496 2.384-.496.896 0 1.6907.144 2.384.432.6933.2773 1.232.6667 1.616 1.168.3947.5013.592 1.0773.592 1.728 0 .32-.1067.5707-.32.752-.2133.1813-.496.272-.848.272-.0747 0-.1867-.0107-.336-.032.0213-.128.032-.3307.032-.608 0-.4587-.1333-.8693-.4-1.232-.256-.3627-.624-.6453-1.104-.848-.4693-.2027-1.008-.304-1.616-.304-.5973 0-1.1307.112-1.6.336-.4693.2133-.8373.5227-1.104.928-.256.3947-.384.8427-.384 1.344v3.584c0 .512.128.9707.384 1.376.2667.3947.6347.704 1.104.928.48.224 1.024.336 1.632.336.6187 0 1.168-.1013 1.648-.304s.8533-.48 1.12-.832c.2667-.3627.4-.7787.4-1.248 0-.1707-.0107-.3733-.032-.608.1493-.0213.256-.032.32-.032.352 0 .6347.1013.848.304.224.2027.336.4747.336.816 0 .6293-.1973 1.1893-.592 1.68-.3947.4907-.944.8747-1.648 1.152-.6933.2667-1.4933.4-2.4.4ZM46.2655 23.144c-.8853 0-1.68-.1707-2.384-.512-.6933-.352-1.2373-.832-1.632-1.44-.3947-.6187-.592-1.3013-.592-2.048v-3.52c0-.7467.1973-1.4187.592-2.016.3947-.608.9387-1.0827 1.632-1.424.704-.352 1.4987-.528 2.384-.528.896 0 1.6907.176 2.384.528.704.3413 1.2533.816 1.648 1.424.3947.5973.592 1.2693.592 2.016v3.52c0 .7467-.1973 1.4293-.592 2.048-.3947.608-.944 1.088-1.648 1.44-.704.3413-1.4987.512-2.384.512Zm0-1.312c.992 0 1.7653-.2453 2.32-.736.5547-.4907.832-1.1467.832-1.968v-3.472c0-.8213-.2773-1.472-.832-1.952-.5547-.4907-1.328-.736-2.32-.736-.9813 0-1.7493.2453-2.304.736-.5547.48-.832 1.1307-.832 1.952v3.472c0 .8213.2773 1.4773.832 1.968.5547.4907 1.3227.736 2.304.736ZM56.9374 23.144c-.8854 0-1.68-.1707-2.384-.512-.6934-.352-1.2374-.832-1.632-1.44-.3947-.6187-.592-1.3013-.592-2.048v-3.52c0-.7467.1973-1.4187.592-2.016.3946-.608.9386-1.0827 1.632-1.424.704-.352 1.4986-.528 2.384-.528.896 0 1.6906.176 2.384.528.704.3413 1.2533.816 1.648 1.424.3946.5973.592 1.2693.592 2.016v3.52c0 .7467-.1974 1.4293-.592 2.048-.3947.608-.944 1.088-1.648 1.44-.704.3413-1.4987.512-2.384.512Zm0-1.312c.992 0 1.7653-.2453 2.32-.736.5546-.4907.832-1.1467.832-1.968v-3.472c0-.8213-.2774-1.472-.832-1.952-.5547-.4907-1.328-.736-2.32-.736-.9814 0-1.7494.2453-2.304.736-.5547.48-.832 1.1307-.832 1.952v3.472c0 .8213.2773 1.4773.832 1.968.5546.4907 1.3226.736 2.304.736ZM63.4012 12.904c0-.3947.1334-.6987.4-.912.2667-.224.6347-.336 1.104-.336v5.488l5.84-5.488c.1814.1493.3307.3093.448.48.1174.16.176.304.176.432 0 .2667-.16.5493-.48.848l-3.744 3.52 4.832 5.792c-.1173.128-.256.2293-.416.304-.1493.0747-.2986.112-.448.112-.416 0-.752-.1493-1.008-.448l-4.048-4.8-1.152 1.072v2.976c0 .4053-.1226.7093-.368.912-.2453.192-.624.288-1.136.288v-10.24ZM74.5911 23c-.2133 0-.3947-.0693-.544-.208-.1493-.1387-.224-.304-.224-.496v-9.792c0-.2027.0747-.368.224-.496.1493-.1387.3307-.208.544-.208h4.448c.928 0 1.664.2773 2.208.832.5547.5547.832 1.3013.832 2.24 0 .5013-.1333.9707-.4 1.408-.2667.4373-.6133.7627-1.04.976v.032c.608.1813 1.0774.496 1.408.944.3307.4373.496.9707.496 1.6 0 .6187-.1333 1.168-.4 1.648-.256.48-.6187.8533-1.088 1.12-.4693.2667-1.008.4-1.616.4h-4.848Zm4.416-6.256c.4374 0 .8107-.176 1.12-.528.32-.3627.48-.8.48-1.312 0-.5653-.144-1.008-.432-1.328-.2773-.32-.6666-.48-1.168-.48h-3.696v3.648h3.696Zm.32 4.96c.544 0 .9707-.16 1.28-.48.3093-.3307.464-.7893.464-1.376 0-.5653-.1547-1.008-.464-1.328-.2986-.32-.7253-.48-1.28-.48h-4.016v3.664h4.016ZM88.5936 23.144c-.8853 0-1.68-.1707-2.384-.512-.6933-.352-1.2373-.832-1.632-1.44-.3946-.6187-.592-1.3013-.592-2.048v-3.52c0-.7467.1974-1.4187.592-2.016.3947-.608.9387-1.0827 1.632-1.424.704-.352 1.4987-.528 2.384-.528.896 0 1.6907.176 2.384.528.704.3413 1.2534.816 1.648 1.424.3947.5973.592 1.2693.592 2.016v3.52c0 .7467-.1973 1.4293-.592 2.048-.3946.608-.944 1.088-1.648 1.44-.704.3413-1.4987.512-2.384.512Zm0-1.312c.992 0 1.7653-.2453 2.32-.736.5547-.4907.832-1.1467.832-1.968v-3.472c0-.8213-.2773-1.472-.832-1.952-.5547-.4907-1.328-.736-2.32-.736-.9813 0-1.7493.2453-2.304.736-.5547.48-.832 1.1307-.832 1.952v3.472c0 .8213.2773 1.4773.832 1.968.5547.4907 1.3227.736 2.304.736ZM99.2655 23.144c-.8853 0-1.68-.1707-2.384-.512-.6933-.352-1.2373-.832-1.632-1.44-.3947-.6187-.592-1.3013-.592-2.048v-3.52c0-.7467.1973-1.4187.592-2.016.3947-.608.9387-1.0827 1.632-1.424.704-.352 1.4987-.528 2.384-.528.8955 0 1.6905.176 2.3835.528.704.3413 1.254.816 1.648 1.424.395.5973.592 1.2693.592 2.016v3.52c0 .7467-.197 1.4293-.592 2.048-.394.608-.944 1.088-1.648 1.44-.704.3413-1.498.512-2.3835.512Zm0-1.312c.9915 0 1.7655-.2453 2.3195-.736.555-.4907.832-1.1467.832-1.968v-3.472c0-.8213-.277-1.472-.832-1.952-.554-.4907-1.328-.736-2.3195-.736-.9813 0-1.7493.2453-2.304.736-.5547.48-.832 1.1307-.832 1.952v3.472c0 .8213.2773 1.4773.832 1.968.5547.4907 1.3227.736 2.304.736ZM105.729 12.904c0-.3947.134-.6987.4-.912.267-.224.635-.336 1.104-.336v5.488l5.84-5.488c.182.1493.331.3093.448.48.118.16.176.304.176.432 0 .2667-.16.5493-.48.848l-3.744 3.52 4.832 5.792c-.117.128-.256.2293-.416.304-.149.0747-.298.112-.448.112-.416 0-.752-.1493-1.008-.448l-4.048-4.8-1.152 1.072v2.976c0 .4053-.122.7093-.368.912-.245.192-.624.288-1.136.288v-10.24Z"/><path stroke="#292524" stroke-linecap="round" stroke-linejoin="round" stroke-miterlimit="10" stroke-width="1.5" d="M2.6335 12.0382c2.226-.3892 20.31.4254 22.078.5805m-22.095-.4794c-.393.1473-1.628197 15.333 1.134 16.1651 4.254 1.2817 16.543 1.4571 19.239.2945 1.399-.6037 1.793-4.7219 1.855-8.827.04-2.6969-.064-5.388-.12-7.0733M9.97653 5.42287c.011.04344-.04-2.54586.42997-2.59803 4.045-.44966 8.542.42826 8.714.85136.243.59595.11 1.8013-.085 2.41953M3.56953 9.09366c5.366.36257 18.63897 1.53094 20.47297 1.34844 1.83-.1821-1.07-2.39767-2.569-3.16115-4.136-2.10717-11.299-2.3206-14.72598-1.04323-1.9.70798-4.93999 2.73692-3.17799 2.85594Z"/><path fill="#292524" stroke="#292524" stroke-linejoin="round" stroke-miterlimit="10" stroke-width="1.5" d="M9.93748 17.3569c-.955-.5339-1.721 2.4481-.627 2.6065.96902.1405.98802-.2408 1.15102-1.2074.163-.9621-.154-1.1921-.52402-1.3991Zm7.28702.6189c-.177.4415-.304 2.0225.596 2.0128.378-.004.64.0311.831-.618.19-.649.033-1.0314-.065-1.2886-.503-1.3075-1.185-.5496-1.362-.1062Z"/><path fill="#FACC15" stroke="#FACC15" stroke-linejoin="round" stroke-miterlimit="10" stroke-width="1.5" d="M10.1145 23.1751c-.71302-.4859-3.76901-.5827-2.69801.6453.314.3604 3.68601.4895 2.64401-.6914l.054.0461Zm6.415.1527c-.019.3099.52.8093 1.595.8178 1.689.0135 1.773-.7306 1.838-.8759.22-.4949-1.166-.5925-1.961-.5423-.802.0505-1.442.1159-1.472.6004Z"/></svg>